<svg width="1404" height="817" viewBox="0 0 1404 817" fill="none" xmlns="http://www.w3.org/2000/svg">
<g id="backgroud dark " clip-path="url(#clip0_223_857)">
<g id="Clip path group">
<mask id="mask0_223_857" style="mask-type:luminance" maskUnits="userSpaceOnUse" x="0" y="0" width="1404" height="817">
<g id="clip0_166_3468">
<path id="Vector" d="M1404 0H0V817H1404V0Z" fill="white"/>
</g>
</mask>
<g mask="url(#mask0_223_857)">
<g id="Group">
<path id="Vector_2" d="M1403 19.6575H29V819.657H1403V19.6575Z" fill="#393B41"/>
<path id="Vector_3" d="M651.003 61.6574C459.503 -27.3426 271.004 649.657 121 410.157" stroke="white" stroke-opacity="0.55" stroke-width="3"/>
<path id="Vector_4" d="M28.9971 20.0905C36.9527 19.9756 44.6282 23.0259 50.3349 28.5702C56.0416 34.1145 59.3121 41.6987 59.4269 49.6543C59.5418 57.61 56.4915 65.2855 50.9472 70.9922C45.4029 76.6989 37.8187 79.9694 29.863 80.0842L29.43 50.0873L28.9971 20.0905Z" fill="#44C6EA" fill-opacity="0.55"/>
<path id="Vector_5" d="M80 732.657C91.0457 732.657 100 723.703 100 712.657C100 701.611 91.0457 692.657 80 692.657C68.9543 692.657 60 701.611 60 712.657C60 723.703 68.9543 732.657 80 732.657Z" fill="#44C6EA" fill-opacity="0.55"/>
<path id="Vector_6" d="M1279 120.657C1290.05 120.657 1299 111.703 1299 100.657C1299 89.6113 1290.05 80.657 1279 80.657C1267.95 80.657 1259 89.6113 1259 100.657C1259 111.703 1267.95 120.657 1279 120.657Z" fill="#44C6EA" fill-opacity="0.55"/>
<path id="Vector_7" d="M410 258.657C421.046 258.657 430 249.703 430 238.657C430 227.611 421.046 218.657 410 218.657C398.954 218.657 390 227.611 390 238.657C390 249.703 398.954 258.657 410 258.657Z" fill="#44C6EA" fill-opacity="0.55"/>
<path id="Vector_8" d="M708.521 310.859C897.095 192.452 927.717 695.131 1405.32 762.274" stroke="white" stroke-opacity="0.55" stroke-width="3"/>
<path id="Vector_9" d="M1398.02 819.153C1177.47 788.509 982.196 128.562 698.236 388.088" stroke="#44C6EA" stroke-opacity="0.55" stroke-width="3"/>
<path id="Vector_10" d="M1309 747.657C1314.52 747.657 1319 743.18 1319 737.657C1319 732.134 1314.52 727.657 1309 727.657C1303.48 727.657 1299 732.134 1299 737.657C1299 743.18 1303.48 747.657 1309 747.657Z" fill="#44C6EA" fill-opacity="0.55"/>
<path id="Vector_11" d="M896 414.657C901.523 414.657 906 410.18 906 404.657C906 399.134 901.523 394.657 896 394.657C890.477 394.657 886 399.134 886 404.657C886 410.18 890.477 414.657 896 414.657Z" fill="#44C6EA" fill-opacity="0.55"/>
<path id="Vector_12" d="M149.387 39.6546C150.469 41.7909 153.634 42.1327 156.486 40.4237C159.337 38.7147 160.772 35.6384 159.691 33.5022C158.609 31.3659 155.443 31.0455 152.592 32.7331C149.741 34.4208 148.306 37.5183 149.387 39.6546Z" fill="#E6E6E6" fill-opacity="0.65"/>
<path id="Vector_13" d="M819.035 53.6291C820.116 55.7654 823.282 56.1072 826.133 54.3982C828.984 52.6892 830.42 49.613 829.338 47.4767C828.257 45.3404 825.091 45.02 822.24 46.7077C819.389 48.3953 817.953 51.4929 819.035 53.6291Z" fill="#E6E6E6" fill-opacity="0.65"/>
<path id="Vector_14" d="M130.668 112.715C131.592 114.53 134.345 114.851 136.842 113.313C139.339 111.775 140.598 109.04 139.693 107.331C138.789 105.622 136.016 105.195 133.519 106.733C131.022 108.271 129.763 110.899 130.668 112.715Z" fill="#E6E6E6" fill-opacity="0.65"/>
<path id="Vector_15" d="M800.315 126.689C801.239 128.505 803.992 128.825 806.49 127.287C808.987 125.749 810.245 123.015 809.341 121.306C808.436 119.597 805.664 119.169 803.166 120.708C800.669 122.246 799.411 124.873 800.315 126.689Z" fill="#E6E6E6" fill-opacity="0.65"/>
<path id="Vector_16" d="M141.109 108.485C141.22 108.645 141.36 108.779 141.521 108.879C141.681 108.979 141.858 109.043 142.042 109.066C142.225 109.09 142.411 109.074 142.589 109.018C142.766 108.962 142.932 108.868 143.075 108.741C143.822 108.293 144.176 107.459 143.881 106.883C143.586 106.306 142.76 106.199 142.013 106.626C141.266 107.054 140.814 107.908 141.109 108.485Z" fill="#E6E6E6" fill-opacity="0.65"/>
<path id="Vector_17" d="M810.756 122.459C810.868 122.619 811.008 122.753 811.168 122.853C811.329 122.953 811.506 123.017 811.689 123.041C811.873 123.065 812.059 123.048 812.236 122.992C812.414 122.937 812.579 122.842 812.723 122.716C813.47 122.267 813.824 121.434 813.529 120.857C813.234 120.28 812.408 120.174 811.661 120.601C810.913 121.028 810.461 121.883 810.756 122.459Z" fill="#E6E6E6" fill-opacity="0.65"/>
<path id="Vector_18" d="M172.315 105.259C172.508 106.214 172.973 107.078 173.645 107.73C174.316 108.381 175.158 108.787 176.053 108.889C176.948 108.991 177.85 108.784 178.631 108.298C179.412 107.813 180.032 107.072 180.404 106.182C180.776 105.291 180.881 104.296 180.703 103.338C180.525 102.38 180.075 101.506 179.415 100.842C178.755 100.177 177.919 99.7549 177.025 99.6352C176.132 99.5156 175.227 99.7043 174.438 100.175C173.55 100.562 172.833 101.307 172.437 102.254C172.041 103.201 171.998 104.278 172.315 105.259Z" fill="#E6E6E6" fill-opacity="0.65"/>
<path id="Vector_19" d="M841.961 119.234C842.155 120.188 842.62 121.053 843.291 121.704C843.962 122.356 844.805 122.761 845.7 122.863C846.595 122.965 847.497 122.759 848.278 122.273C849.059 121.787 849.68 121.046 850.052 120.156C850.424 119.266 850.528 118.271 850.351 117.312C850.173 116.354 849.722 115.481 849.062 114.816C848.402 114.151 847.565 113.729 846.672 113.61C845.779 113.49 844.874 113.679 844.085 114.149C843.196 114.536 842.48 115.281 842.085 116.228C841.689 117.176 841.644 118.252 841.961 119.234Z" fill="#E6E6E6" fill-opacity="0.65"/>
<path id="Vector_20" d="M170.486 97.9744C170.615 98.2227 170.788 98.4409 170.995 98.6166C171.202 98.7923 171.438 98.922 171.691 98.9984C171.944 99.0748 172.208 99.0963 172.469 99.0617C172.729 99.0271 172.981 98.9371 173.21 98.7969C173.438 98.6566 173.639 98.4688 173.801 98.2442C173.962 98.0196 174.082 97.7626 174.152 97.4878C174.222 97.2131 174.242 96.926 174.21 96.6429C174.179 96.3599 174.096 96.0864 173.967 95.8381C173.687 95.3973 173.265 95.0867 172.784 94.968C172.303 94.8493 171.799 94.9312 171.371 95.1973C170.924 95.4493 170.584 95.8776 170.419 96.3943C170.255 96.9109 170.279 97.4764 170.486 97.9744Z" fill="#E6E6E6" fill-opacity="0.65"/>
<path id="Vector_21" d="M840.133 111.949C840.262 112.197 840.435 112.415 840.642 112.591C840.849 112.767 841.085 112.897 841.338 112.973C841.591 113.049 841.855 113.071 842.116 113.036C842.376 113.002 842.628 112.912 842.857 112.771C843.085 112.631 843.286 112.443 843.448 112.219C843.609 111.994 843.729 111.737 843.799 111.462C843.869 111.188 843.889 110.9 843.857 110.617C843.826 110.334 843.743 110.061 843.614 109.813C843.334 109.372 842.911 109.061 842.431 108.943C841.95 108.824 841.446 108.906 841.018 109.172C840.571 109.424 840.231 109.852 840.066 110.369C839.902 110.885 839.926 111.451 840.133 111.949Z" fill="#E6E6E6" fill-opacity="0.65"/>
<path id="Vector_22" d="M329.425 792.707L336.838 794.202L338.49 802.683L340.141 794.202L347.554 792.707L340.181 790.763L338.49 782.752L336.799 790.763L329.425 792.707Z" fill="#E6E6E6" fill-opacity="0.65"/>
<path id="Vector_23" d="M999.07 806.681L1006.49 808.176L1008.14 816.657L1009.79 808.176L1017.2 806.681L1009.83 804.737L1008.14 796.726L1006.45 804.737L999.07 806.681Z" fill="#E6E6E6" fill-opacity="0.65"/>
<path id="Vector_24" d="M174.065 302.179L181.458 303.675L183.13 312.156L184.781 303.675L192.175 302.179L184.801 300.214L183.13 292.203L181.439 300.214L174.065 302.179Z" fill="#E6E6E6" fill-opacity="0.65"/>
<path id="Vector_25" d="M843.712 316.154L851.105 317.649L852.777 326.13L854.428 317.649L861.822 316.154L854.448 314.188L852.777 306.177L851.086 314.188L843.712 316.154Z" fill="#E6E6E6" fill-opacity="0.65"/>
<path id="Vector_26" d="M422.315 151.167L429.728 152.663L431.38 161.144L433.031 152.663L440.445 151.167L433.071 149.223L431.38 141.212L429.689 149.223L422.315 151.167Z" fill="#E6E6E6" fill-opacity="0.65"/>
<path id="Vector_27" d="M1091.96 165.142L1099.37 166.637L1101.03 175.118L1102.68 166.637L1110.09 165.142L1102.72 163.198L1101.03 155.187L1099.34 163.198L1091.96 165.142Z" fill="#E6E6E6" fill-opacity="0.65"/>
<path id="Vector_28" d="M568.354 375.496L572.503 376.329L573.427 381.071L574.351 376.329L578.481 375.496L574.37 374.406L573.427 369.92L572.482 374.406L568.354 375.496Z" fill="#E6E6E6" fill-opacity="0.65"/>
<path id="Vector_29" d="M1238 389.47L1242.15 390.303L1243.07 395.046L1244 390.303L1248.13 389.47L1244.02 388.381L1243.07 383.894L1242.13 388.381L1238 389.47Z" fill="#E6E6E6" fill-opacity="0.65"/>
<path id="Vector_30" d="M254.252 555.881L258.381 556.714L259.305 561.457L260.23 556.714L264.379 555.881L260.249 554.792L259.305 550.306L258.362 554.792L254.252 555.881Z" fill="#E6E6E6" fill-opacity="0.65"/>
<path id="Vector_31" d="M923.899 569.856L928.029 570.689L928.953 575.431L929.877 570.689L934.026 569.856L929.897 568.766L928.953 564.28L928.009 568.766L923.899 569.856Z" fill="#E6E6E6" fill-opacity="0.65"/>
<path id="Vector_32" d="M720.155 96.949L724.284 97.7822L725.208 102.525L726.132 97.7822L730.281 96.949L726.152 95.8595L725.208 91.3734L724.264 95.8595L720.155 96.949Z" fill="#E6E6E6" fill-opacity="0.65"/>
<path id="Vector_33" d="M1389.8 110.924L1393.93 111.757L1394.86 116.499L1395.78 111.757L1399.93 110.924L1395.8 109.834L1394.86 105.348L1393.91 109.834L1389.8 110.924Z" fill="#E6E6E6" fill-opacity="0.65"/>
<path id="Vector_34" d="M69.9678 264.068L74.0971 264.902L75.0213 269.644L75.9454 264.902L80.0944 264.068L75.9651 262.979L75.0213 258.514L74.0774 262.979L69.9678 264.068Z" fill="#E6E6E6" fill-opacity="0.65"/>
<path id="Vector_35" d="M739.615 278.043L743.744 278.876L744.668 283.619L745.592 278.876L749.741 278.043L745.612 276.953L744.668 272.489L743.724 276.953L739.615 278.043Z" fill="#E6E6E6" fill-opacity="0.65"/>
<path id="Vector_36" d="M26 717.874L30.1293 718.707L31.0535 723.449L31.9777 718.707L36.1266 717.874L31.9973 716.763L31.0535 712.298L30.1096 716.763L26 717.874Z" fill="#E6E6E6" fill-opacity="0.65"/>
<path id="Vector_37" d="M695.646 731.848L699.776 732.681L700.701 737.424L701.625 732.681L705.773 731.848L701.645 730.737L700.701 726.273L699.757 730.737L695.646 731.848Z" fill="#E6E6E6" fill-opacity="0.65"/>
<path id="Vector_38" d="M221.336 106.37L225.465 107.203L226.389 111.946L227.314 107.203L231.463 106.37L227.333 105.259L226.389 100.794L225.446 105.259L221.336 106.37Z" fill="#E6E6E6" fill-opacity="0.65"/>
<path id="Vector_39" d="M890.983 120.344L895.113 121.178L896.037 125.92L896.961 121.178L901.11 120.344L896.981 119.234L896.037 114.769L895.093 119.234L890.983 120.344Z" fill="#E6E6E6" fill-opacity="0.65"/>
<path id="Vector_40" d="M244.46 566.135C244.778 566.135 245.083 566.272 245.308 566.517C245.533 566.761 245.659 567.093 245.659 567.438C245.659 567.784 245.533 568.115 245.308 568.36C245.083 568.604 244.778 568.741 244.46 568.741C244.142 568.741 243.837 568.604 243.612 568.36C243.387 568.115 243.26 567.784 243.26 567.438C243.26 567.093 243.387 566.761 243.612 566.517C243.837 566.272 244.142 566.135 244.46 566.135Z" fill="#E6E6E6" fill-opacity="0.65"/>
<path id="Vector_41" d="M914.107 580.11C914.425 580.11 914.73 580.247 914.955 580.491C915.18 580.736 915.307 581.067 915.307 581.413C915.307 581.758 915.18 582.09 914.955 582.334C914.73 582.579 914.425 582.716 914.107 582.716C913.789 582.716 913.484 582.579 913.259 582.334C913.034 582.09 912.908 581.758 912.908 581.413C912.908 581.067 913.034 580.736 913.259 580.491C913.484 580.247 913.789 580.11 914.107 580.11Z" fill="#E6E6E6" fill-opacity="0.65"/>
<path id="Vector_42" d="M458.495 321.641C458.814 321.641 459.119 321.778 459.344 322.022C459.568 322.267 459.695 322.598 459.695 322.944C459.695 323.289 459.568 323.621 459.344 323.865C459.119 324.11 458.814 324.247 458.495 324.247C458.177 324.247 457.872 324.11 457.647 323.865C457.422 323.621 457.296 323.289 457.296 322.944C457.296 322.598 457.422 322.267 457.647 322.022C457.872 321.778 458.177 321.641 458.495 321.641Z" fill="#E6E6E6" fill-opacity="0.65"/>
<path id="Vector_43" d="M1128.14 335.615C1128.46 335.615 1128.77 335.752 1128.99 335.997C1129.22 336.241 1129.34 336.573 1129.34 336.918C1129.34 337.264 1129.22 337.595 1128.99 337.84C1128.77 338.084 1128.46 338.221 1128.14 338.221C1127.82 338.221 1127.52 338.084 1127.29 337.84C1127.07 337.595 1126.94 337.264 1126.94 336.918C1126.94 336.573 1127.07 336.241 1127.29 335.997C1127.52 335.752 1127.82 335.615 1128.14 335.615Z" fill="#E6E6E6" fill-opacity="0.65"/>
<path id="Vector_44" d="M578.717 573.612C579.035 573.612 579.34 573.749 579.565 573.994C579.79 574.238 579.916 574.57 579.916 574.915C579.916 575.261 579.79 575.592 579.565 575.837C579.34 576.081 579.035 576.218 578.717 576.218C578.398 576.218 578.093 576.081 577.868 575.837C577.643 575.592 577.517 575.261 577.517 574.915C577.517 574.57 577.643 574.238 577.868 573.994C578.093 573.749 578.398 573.612 578.717 573.612Z" fill="#E6E6E6" fill-opacity="0.65"/>
<path id="Vector_45" d="M1248.36 587.587C1248.68 587.587 1248.99 587.724 1249.21 587.968C1249.44 588.213 1249.56 588.544 1249.56 588.89C1249.56 589.235 1249.44 589.567 1249.21 589.811C1248.99 590.056 1248.68 590.193 1248.36 590.193C1248.05 590.193 1247.74 590.056 1247.52 589.811C1247.29 589.567 1247.16 589.235 1247.16 588.89C1247.16 588.544 1247.29 588.213 1247.52 587.968C1247.74 587.724 1248.05 587.587 1248.36 587.587Z" fill="#E6E6E6" fill-opacity="0.65"/>
<path id="Vector_46" d="M515.596 338.731C515.914 338.731 516.22 338.868 516.445 339.112C516.67 339.357 516.796 339.688 516.796 340.034C516.796 340.379 516.67 340.711 516.445 340.955C516.22 341.2 515.914 341.337 515.596 341.337C515.278 341.337 514.974 341.2 514.749 340.955C514.524 340.711 514.396 340.379 514.396 340.034C514.396 339.688 514.524 339.357 514.749 339.112C514.974 338.868 515.278 338.731 515.596 338.731Z" fill="#E6E6E6" fill-opacity="0.65"/>
<path id="Vector_47" d="M1185.24 352.705C1185.56 352.705 1185.87 352.842 1186.09 353.087C1186.32 353.331 1186.44 353.663 1186.44 354.008C1186.44 354.354 1186.32 354.685 1186.09 354.93C1185.87 355.174 1185.56 355.311 1185.24 355.311C1184.93 355.311 1184.62 355.174 1184.4 354.93C1184.17 354.685 1184.04 354.354 1184.04 354.008C1184.04 353.663 1184.17 353.331 1184.4 353.087C1184.62 352.842 1184.93 352.705 1185.24 352.705Z" fill="#E6E6E6" fill-opacity="0.65"/>
<path id="Vector_48" d="M274.505 542.679C274.709 542.713 274.896 542.825 275.031 542.996C275.166 543.166 275.24 543.384 275.24 543.608C275.24 543.833 275.166 544.051 275.031 544.221C274.896 544.392 274.709 544.504 274.505 544.538C274.3 544.504 274.113 544.392 273.979 544.221C273.844 544.051 273.77 543.833 273.77 543.608C273.77 543.384 273.844 543.166 273.979 542.996C274.113 542.825 274.3 542.713 274.505 542.679Z" fill="#E6E6E6" fill-opacity="0.65"/>
<path id="Vector_49" d="M944.152 556.654C944.357 556.687 944.543 556.8 944.678 556.97C944.813 557.141 944.887 557.358 944.887 557.583C944.887 557.808 944.813 558.025 944.678 558.196C944.543 558.366 944.357 558.478 944.152 558.512C943.948 558.478 943.761 558.366 943.626 558.196C943.491 558.025 943.417 557.808 943.417 557.583C943.417 557.358 943.491 557.141 943.626 556.97C943.761 556.8 943.948 556.687 944.152 556.654Z" fill="#E6E6E6" fill-opacity="0.65"/>
<path id="Vector_50" d="M661.46 118.312C661.665 118.345 661.851 118.458 661.986 118.628C662.121 118.799 662.195 119.016 662.195 119.241C662.195 119.466 662.121 119.683 661.986 119.854C661.851 120.024 661.665 120.136 661.46 120.17C661.256 120.136 661.069 120.024 660.934 119.854C660.799 119.683 660.725 119.466 660.725 119.241C660.725 119.016 660.799 118.799 660.934 118.628C661.069 118.458 661.256 118.345 661.46 118.312Z" fill="#E6E6E6" fill-opacity="0.65"/>
<path id="Vector_51" d="M1331.11 132.286C1331.31 132.32 1331.5 132.432 1331.63 132.603C1331.77 132.773 1331.84 132.991 1331.84 133.215C1331.84 133.44 1331.77 133.658 1331.63 133.828C1331.5 133.998 1331.31 134.111 1331.11 134.145C1330.9 134.111 1330.72 133.998 1330.58 133.828C1330.45 133.658 1330.37 133.44 1330.37 133.215C1330.37 132.991 1330.45 132.773 1330.58 132.603C1330.72 132.432 1330.9 132.32 1331.11 132.286Z" fill="#E6E6E6" fill-opacity="0.65"/>
<path id="Vector_52" d="M432.382 360.264C432.606 360.264 432.821 360.361 432.98 360.533C433.138 360.705 433.227 360.939 433.227 361.183C433.227 361.426 433.138 361.66 432.98 361.832C432.821 362.005 432.606 362.101 432.382 362.101C432.157 362.101 431.942 362.005 431.784 361.832C431.625 361.66 431.536 361.426 431.536 361.183C431.536 360.939 431.625 360.705 431.784 360.533C431.942 360.361 432.157 360.264 432.382 360.264Z" fill="#E6E6E6" fill-opacity="0.65"/>
<path id="Vector_53" d="M1102.03 374.239C1102.25 374.239 1102.47 374.335 1102.63 374.508C1102.79 374.68 1102.87 374.914 1102.87 375.157C1102.87 375.401 1102.79 375.634 1102.63 375.807C1102.47 375.979 1102.25 376.076 1102.03 376.076C1101.8 376.076 1101.59 375.979 1101.43 375.807C1101.27 375.634 1101.18 375.401 1101.18 375.157C1101.18 374.914 1101.27 374.68 1101.43 374.508C1101.59 374.335 1101.8 374.239 1102.03 374.239Z" fill="#E6E6E6" fill-opacity="0.65"/>
<path id="Vector_54" d="M324.214 424.501C324.438 424.501 324.653 424.598 324.812 424.77C324.971 424.943 325.06 425.176 325.06 425.42C325.06 425.664 324.971 425.897 324.812 426.07C324.653 426.242 324.438 426.339 324.214 426.339C323.99 426.339 323.775 426.242 323.616 426.07C323.458 425.897 323.369 425.664 323.369 425.42C323.369 425.176 323.458 424.943 323.616 424.77C323.775 424.598 323.99 424.501 324.214 424.501Z" fill="#E6E6E6" fill-opacity="0.65"/>
<path id="Vector_55" d="M993.861 438.476C994.085 438.476 994.3 438.573 994.459 438.745C994.618 438.917 994.707 439.151 994.707 439.394C994.707 439.638 994.618 439.872 994.459 440.044C994.3 440.216 994.085 440.313 993.861 440.313C993.637 440.313 993.422 440.216 993.263 440.044C993.105 439.872 993.016 439.638 993.016 439.394C993.016 439.151 993.105 438.917 993.263 438.745C993.422 438.573 993.637 438.476 993.861 438.476Z" fill="#E6E6E6" fill-opacity="0.65"/>
<path id="Vector_56" d="M511.861 421.382C512.471 421.382 513.056 421.646 513.488 422.115C513.919 422.583 514.162 423.219 514.162 423.882C514.162 424.545 513.919 425.18 513.488 425.649C513.056 426.118 512.471 426.381 511.861 426.381C511.251 426.381 510.666 426.118 510.234 425.649C509.803 425.18 509.561 424.545 509.561 423.882C509.561 423.219 509.803 422.583 510.234 422.115C510.666 421.646 511.251 421.382 511.861 421.382Z" fill="#E6E6E6" fill-opacity="0.65"/>
<path id="Vector_57" d="M1181.51 435.357C1182.12 435.357 1182.7 435.62 1183.13 436.089C1183.57 436.558 1183.81 437.193 1183.81 437.856C1183.81 438.519 1183.57 439.155 1183.13 439.624C1182.7 440.092 1182.12 440.356 1181.51 440.356C1180.9 440.356 1180.31 440.092 1179.88 439.624C1179.45 439.155 1179.21 438.519 1179.21 437.856C1179.21 437.193 1179.45 436.558 1179.88 436.089C1180.31 435.62 1180.9 435.357 1181.51 435.357Z" fill="#E6E6E6" fill-opacity="0.65"/>
<path id="Vector_58" d="M611.928 190.026L619.341 191.521L620.993 200.002L622.645 191.521L630.058 190.026L622.684 188.06L620.993 180.049L619.302 188.06L611.928 190.026Z" fill="#E6E6E6" fill-opacity="0.65"/>
<path id="Vector_59" d="M1281.58 204L1288.99 205.496L1290.64 213.977L1292.29 205.496L1299.7 204L1292.33 202.035L1290.64 194.024L1288.95 202.035L1281.58 204Z" fill="#E6E6E6" fill-opacity="0.65"/>
<path id="Vector_60" d="M297 11.5842L301.129 12.4173L302.053 17.1598L302.978 12.4173L307.127 11.5842L302.997 10.4947L302.053 6.00854L301.11 10.4947L297 11.5842Z" fill="#E6E6E6" fill-opacity="0.65"/>
<path id="Vector_61" d="M966.646 25.5587L970.776 26.3918L971.701 31.1343L972.625 26.3918L976.773 25.5587L972.645 24.4692L971.701 19.983L970.757 24.4692L966.646 25.5587Z" fill="#E6E6E6" fill-opacity="0.65"/>
<path id="Vector_62" d="M63.1829 139.354C63.501 139.354 63.8061 139.491 64.031 139.735C64.2559 139.98 64.3823 140.311 64.3823 140.657C64.3823 141.002 64.2559 141.334 64.031 141.578C63.8061 141.823 63.501 141.96 63.1829 141.96C62.8647 141.96 62.5596 141.823 62.3347 141.578C62.1098 141.334 61.9834 141.002 61.9834 140.657C61.9834 140.311 62.1098 139.98 62.3347 139.735C62.5596 139.491 62.8647 139.354 63.1829 139.354Z" fill="#E6E6E6" fill-opacity="0.65"/>
<path id="Vector_63" d="M732.83 153.328C733.148 153.328 733.454 153.466 733.678 153.71C733.903 153.954 734.03 154.286 734.03 154.631C734.03 154.977 733.903 155.308 733.678 155.553C733.454 155.797 733.148 155.934 732.83 155.934C732.512 155.934 732.207 155.797 731.982 155.553C731.757 155.308 731.631 154.977 731.631 154.631C731.631 154.286 731.757 153.954 731.982 153.71C732.207 153.466 732.512 153.328 732.83 153.328Z" fill="#E6E6E6" fill-opacity="0.65"/>
<path id="Vector_64" d="M82.0208 485.064C82.3389 485.064 82.644 485.202 82.8689 485.446C83.0938 485.69 83.2202 486.022 83.2202 486.367C83.2202 486.713 83.0938 487.044 82.8689 487.289C82.644 487.533 82.3389 487.67 82.0208 487.67C81.7026 487.67 81.3975 487.533 81.1726 487.289C80.9477 487.044 80.8213 486.713 80.8213 486.367C80.8213 486.022 80.9477 485.69 81.1726 485.446C81.3975 485.202 81.7026 485.064 82.0208 485.064Z" fill="#E6E6E6" fill-opacity="0.65"/>
<path id="Vector_65" d="M751.668 499.039C751.986 499.039 752.291 499.176 752.516 499.42C752.741 499.665 752.868 499.996 752.868 500.342C752.868 500.687 752.741 501.019 752.516 501.263C752.291 501.508 751.986 501.645 751.668 501.645C751.35 501.645 751.045 501.508 750.82 501.263C750.595 501.019 750.469 500.687 750.469 500.342C750.469 499.996 750.595 499.665 750.82 499.42C751.045 499.176 751.35 499.039 751.668 499.039Z" fill="#E6E6E6" fill-opacity="0.65"/>
<path id="Vector_66" d="M179.315 509.119C179.633 509.119 179.938 509.256 180.163 509.5C180.388 509.745 180.514 510.076 180.514 510.422C180.514 510.767 180.388 511.099 180.163 511.343C179.938 511.588 179.633 511.725 179.315 511.725C178.997 511.725 178.691 511.588 178.467 511.343C178.242 511.099 178.115 510.767 178.115 510.422C178.115 510.076 178.242 509.745 178.467 509.5C178.691 509.256 178.997 509.119 179.315 509.119Z" fill="#E6E6E6" fill-opacity="0.65"/>
<path id="Vector_67" d="M848.962 523.093C849.28 523.093 849.585 523.23 849.81 523.475C850.035 523.719 850.162 524.051 850.162 524.396C850.162 524.742 850.035 525.073 849.81 525.318C849.585 525.562 849.28 525.699 848.962 525.699C848.644 525.699 848.339 525.562 848.114 525.318C847.889 525.073 847.763 524.742 847.763 524.396C847.763 524.051 847.889 523.719 848.114 523.475C848.339 523.23 848.644 523.093 848.962 523.093Z" fill="#E6E6E6" fill-opacity="0.65"/>
<path id="Vector_68" d="M110.965 248.623C111.283 248.623 111.588 248.761 111.813 249.005C112.038 249.249 112.165 249.581 112.165 249.926C112.165 250.272 112.038 250.603 111.813 250.848C111.588 251.092 111.283 251.23 110.965 251.23C110.647 251.23 110.342 251.092 110.117 250.848C109.892 250.603 109.766 250.272 109.766 249.926C109.766 249.581 109.892 249.249 110.117 249.005C110.342 248.761 110.647 248.623 110.965 248.623Z" fill="#E6E6E6" fill-opacity="0.65"/>
<path id="Vector_69" d="M780.613 262.598C780.931 262.598 781.236 262.735 781.461 262.979C781.686 263.224 781.812 263.555 781.812 263.901C781.812 264.247 781.686 264.578 781.461 264.822C781.236 265.067 780.931 265.204 780.613 265.204C780.294 265.204 779.989 265.067 779.764 264.822C779.539 264.578 779.413 264.247 779.413 263.901C779.413 263.555 779.539 263.224 779.764 262.979C779.989 262.735 780.294 262.598 780.613 262.598Z" fill="#E6E6E6" fill-opacity="0.65"/>
<path id="Vector_70" d="M49.5374 23.6327C49.8555 23.6327 50.1606 23.77 50.3855 24.0143C50.6104 24.2587 50.7368 24.5902 50.7368 24.9358C50.7368 25.2814 50.6104 25.6128 50.3855 25.8572C50.1606 26.1016 49.8555 26.2389 49.5374 26.2389C49.2192 26.2389 48.9141 26.1016 48.6892 25.8572C48.4643 25.6128 48.3379 25.2814 48.3379 24.9358C48.3379 24.5902 48.4643 24.2587 48.6892 24.0143C48.9141 23.77 49.2192 23.6327 49.5374 23.6327Z" fill="#E6E6E6" fill-opacity="0.65"/>
<path id="Vector_71" d="M719.185 37.6072C719.503 37.6072 719.808 37.7445 720.033 37.9889C720.258 38.2333 720.384 38.5648 720.384 38.9104C720.384 39.256 720.258 39.5874 720.033 39.8318C719.808 40.0762 719.503 40.2135 719.185 40.2135C718.867 40.2135 718.562 40.0762 718.337 39.8318C718.112 39.5874 717.985 39.256 717.985 38.9104C717.985 38.5648 718.112 38.2333 718.337 37.9889C718.562 37.7445 718.867 37.6072 719.185 37.6072Z" fill="#E6E6E6" fill-opacity="0.65"/>
<path id="Vector_72" d="M158.453 422.921C158.657 422.954 158.844 423.067 158.979 423.237C159.114 423.408 159.188 423.625 159.188 423.85C159.188 424.075 159.114 424.292 158.979 424.462C158.844 424.633 158.657 424.745 158.453 424.779C158.248 424.745 158.062 424.633 157.927 424.462C157.792 424.292 157.718 424.075 157.718 423.85C157.718 423.625 157.792 423.408 157.927 423.237C158.062 423.067 158.248 422.954 158.453 422.921Z" fill="#E6E6E6" fill-opacity="0.65"/>
<path id="Vector_73" d="M828.1 436.895C828.304 436.929 828.491 437.041 828.626 437.212C828.761 437.382 828.835 437.599 828.835 437.824C828.835 438.049 828.761 438.266 828.626 438.437C828.491 438.607 828.304 438.72 828.1 438.754C827.895 438.72 827.709 438.607 827.574 438.437C827.439 438.266 827.365 438.049 827.365 437.824C827.365 437.599 827.439 437.382 827.574 437.212C827.709 437.041 827.895 436.929 828.1 436.895Z" fill="#E6E6E6" fill-opacity="0.65"/>
<path id="Vector_74" d="M337.507 541.12C337.712 541.153 337.898 541.266 338.033 541.436C338.168 541.607 338.241 541.824 338.241 542.049C338.241 542.274 338.168 542.491 338.033 542.662C337.898 542.832 337.712 542.944 337.507 542.978C337.303 542.944 337.115 542.832 336.98 542.662C336.845 542.491 336.771 542.274 336.771 542.049C336.771 541.824 336.845 541.607 336.98 541.436C337.115 541.266 337.303 541.153 337.507 541.12Z" fill="#E6E6E6" fill-opacity="0.65"/>
<path id="Vector_75" d="M1007.15 555.094C1007.36 555.128 1007.54 555.24 1007.68 555.411C1007.81 555.581 1007.89 555.799 1007.89 556.023C1007.89 556.248 1007.81 556.466 1007.68 556.636C1007.54 556.807 1007.36 556.919 1007.15 556.953C1006.95 556.919 1006.76 556.807 1006.63 556.636C1006.49 556.466 1006.42 556.248 1006.42 556.023C1006.42 555.799 1006.49 555.581 1006.63 555.411C1006.76 555.24 1006.95 555.128 1007.15 555.094Z" fill="#E6E6E6" fill-opacity="0.65"/>
<path id="Vector_76" d="M414.292 47.516C414.497 47.5498 414.683 47.6621 414.818 47.8326C414.953 48.0031 415.027 48.2205 415.027 48.4453C415.027 48.6701 414.953 48.8874 414.818 49.0579C414.683 49.2284 414.497 49.3407 414.292 49.3745C414.088 49.3407 413.901 49.2284 413.766 49.0579C413.631 48.8874 413.557 48.6701 413.557 48.4453C413.557 48.2205 413.631 48.0031 413.766 47.8326C413.901 47.6621 414.088 47.5498 414.292 47.516Z" fill="#E6E6E6" fill-opacity="0.65"/>
<path id="Vector_77" d="M1083.94 61.4905C1084.14 61.5243 1084.33 61.6366 1084.47 61.8071C1084.6 61.9776 1084.67 62.195 1084.67 62.4198C1084.67 62.6446 1084.6 62.8619 1084.47 63.0324C1084.33 63.2029 1084.14 63.3153 1083.94 63.3491C1083.73 63.3153 1083.55 63.2029 1083.41 63.0324C1083.28 62.8619 1083.2 62.6446 1083.2 62.4198C1083.2 62.195 1083.28 61.9776 1083.41 61.8071C1083.55 61.6366 1083.73 61.5243 1083.94 61.4905Z" fill="#E6E6E6" fill-opacity="0.65"/>
<path id="Vector_78" d="M259.325 390.15C259.935 390.15 260.52 390.414 260.952 390.882C261.383 391.351 261.626 391.987 261.626 392.65C261.626 393.313 261.383 393.948 260.952 394.417C260.52 394.886 259.935 395.149 259.325 395.149C258.715 395.149 258.13 394.886 257.698 394.417C257.267 393.948 257.024 393.313 257.024 392.65C257.024 391.987 257.267 391.351 257.698 390.882C258.13 390.414 258.715 390.15 259.325 390.15Z" fill="#E6E6E6" fill-opacity="0.65"/>
<path id="Vector_79" d="M928.973 404.125C929.583 404.125 930.168 404.388 930.599 404.857C931.031 405.326 931.273 405.961 931.273 406.624C931.273 407.287 931.031 407.923 930.599 408.392C930.168 408.86 929.583 409.124 928.973 409.124C928.362 409.124 927.777 408.86 927.346 408.392C926.914 407.923 926.672 407.287 926.672 406.624C926.672 405.961 926.914 405.326 927.346 404.857C927.777 404.388 928.362 404.125 928.973 404.125Z" fill="#E6E6E6" fill-opacity="0.65"/>
<path id="Vector_80" d="M91.4988 420.421C92.1089 420.421 92.6941 420.684 93.1255 421.153C93.557 421.622 93.7994 422.258 93.7994 422.921C93.7994 423.583 93.557 424.219 93.1255 424.688C92.6941 425.157 92.1089 425.42 91.4988 425.42C90.8886 425.42 90.3034 425.157 89.872 424.688C89.4405 424.219 89.1982 423.583 89.1982 422.921C89.1982 422.258 89.4405 421.622 89.872 421.153C90.3034 420.684 90.8886 420.421 91.4988 420.421Z" fill="#E6E6E6" fill-opacity="0.65"/>
<path id="Vector_81" d="M761.146 434.396C761.756 434.396 762.341 434.659 762.773 435.128C763.204 435.596 763.446 436.232 763.446 436.895C763.446 437.558 763.204 438.194 762.773 438.662C762.341 439.131 761.756 439.394 761.146 439.394C760.536 439.394 759.95 439.131 759.519 438.662C759.088 438.194 758.845 437.558 758.845 436.895C758.845 436.232 759.088 435.596 759.519 435.128C759.95 434.659 760.536 434.396 761.146 434.396Z" fill="#E6E6E6" fill-opacity="0.65"/>
<path id="Vector_82" d="M284.809 324.247L288.938 325.08L289.863 329.822L290.787 325.08L294.936 324.247L290.806 323.157L289.863 318.671L288.938 323.157L284.809 324.247Z" fill="#E6E6E6" fill-opacity="0.65"/>
<path id="Vector_83" d="M954.456 338.221L958.585 339.054L959.51 343.797L960.434 339.054L964.583 338.221L960.453 337.132L959.51 332.646L958.585 337.132L954.456 338.221Z" fill="#E6E6E6" fill-opacity="0.65"/>
<path id="Vector_84" d="M289.862 517.834L294.011 518.668L294.935 523.41L295.86 518.668L299.989 517.834L295.879 516.724L294.935 512.259L293.992 516.724L289.862 517.834Z" fill="#E6E6E6" fill-opacity="0.65"/>
<path id="Vector_85" d="M959.51 531.809L963.659 532.642L964.583 537.385L965.507 532.642L969.636 531.809L965.527 530.698L964.583 526.233L963.639 530.698L959.51 531.809Z" fill="#E6E6E6" fill-opacity="0.65"/>
<path id="Vector_86" d="M460.265 97.9958C460.583 97.9958 460.888 98.1332 461.113 98.3776C461.338 98.622 461.464 98.9534 461.464 99.299C461.464 99.6446 461.338 99.9761 461.113 100.22C460.888 100.465 460.583 100.602 460.265 100.602C459.947 100.602 459.642 100.465 459.417 100.22C459.192 99.9761 459.065 99.6446 459.065 99.299C459.065 98.9534 459.192 98.622 459.417 98.3776C459.642 98.1332 459.947 97.9958 460.265 97.9958Z" fill="#E6E6E6" fill-opacity="0.65"/>
<path id="Vector_87" d="M1129.91 111.97C1130.23 111.97 1130.54 112.108 1130.76 112.352C1130.99 112.596 1131.11 112.928 1131.11 113.273C1131.11 113.619 1130.99 113.95 1130.76 114.195C1130.54 114.439 1130.23 114.577 1129.91 114.577C1129.59 114.577 1129.29 114.439 1129.06 114.195C1128.84 113.95 1128.71 113.619 1128.71 113.273C1128.71 112.928 1128.84 112.596 1129.06 112.352C1129.29 112.108 1129.59 111.97 1129.91 111.97Z" fill="#E6E6E6" fill-opacity="0.65"/>
<path id="Vector_88" d="M489.131 462.078C489.355 462.078 489.57 462.175 489.729 462.347C489.887 462.519 489.976 462.753 489.976 462.997C489.976 463.24 489.887 463.474 489.729 463.646C489.57 463.819 489.355 463.915 489.131 463.915C488.906 463.915 488.691 463.819 488.533 463.646C488.374 463.474 488.285 463.24 488.285 462.997C488.285 462.753 488.374 462.519 488.533 462.347C488.691 462.175 488.906 462.078 489.131 462.078Z" fill="#E6E6E6" fill-opacity="0.65"/>
<path id="Vector_89" d="M1158.78 476.053C1159 476.053 1159.22 476.149 1159.38 476.322C1159.53 476.494 1159.62 476.728 1159.62 476.971C1159.62 477.215 1159.53 477.449 1159.38 477.621C1159.22 477.793 1159 477.89 1158.78 477.89C1158.55 477.89 1158.34 477.793 1158.18 477.621C1158.02 477.449 1157.93 477.215 1157.93 476.971C1157.93 476.728 1158.02 476.494 1158.18 476.322C1158.34 476.149 1158.55 476.053 1158.78 476.053Z" fill="#E6E6E6" fill-opacity="0.65"/>
<path id="Vector_90" d="M127.935 305.298L132.084 306.131L133.008 310.874L133.932 306.131L138.081 305.298L133.952 304.209L133.008 299.723L132.064 304.209L127.935 305.298Z" fill="#E6E6E6" fill-opacity="0.65"/>
<path id="Vector_91" d="M797.582 319.273L801.731 320.106L802.655 324.848L803.579 320.106L807.728 319.273L803.599 318.183L802.655 313.697L801.711 318.183L797.582 319.273Z" fill="#E6E6E6" fill-opacity="0.65"/>
<path id="Vector_92" d="M80.094 377.076C80.4121 377.076 80.7172 377.214 80.9421 377.458C81.1671 377.703 81.2935 378.034 81.2935 378.38C81.2935 378.725 81.1671 379.057 80.9421 379.301C80.7172 379.545 80.4121 379.683 80.094 379.683C79.7759 379.683 79.4708 379.545 79.2458 379.301C79.0209 379.057 78.8945 378.725 78.8945 378.38C78.8945 378.034 79.0209 377.703 79.2458 377.458C79.4708 377.214 79.7759 377.076 80.094 377.076Z" fill="#E6E6E6" fill-opacity="0.65"/>
<path id="Vector_93" d="M749.741 391.051C750.06 391.051 750.365 391.188 750.59 391.433C750.815 391.677 750.941 392.008 750.941 392.354C750.941 392.7 750.815 393.031 750.59 393.276C750.365 393.52 750.06 393.657 749.741 393.657C749.423 393.657 749.118 393.52 748.893 393.276C748.668 393.031 748.542 392.7 748.542 392.354C748.542 392.008 748.668 391.677 748.893 391.433C749.118 391.188 749.423 391.051 749.741 391.051Z" fill="#E6E6E6" fill-opacity="0.65"/>
<path id="Vector_94" d="M245.62 280.945C245.938 280.945 246.243 281.082 246.468 281.327C246.693 281.571 246.819 281.902 246.819 282.248C246.819 282.594 246.693 282.925 246.468 283.169C246.243 283.414 245.938 283.551 245.62 283.551C245.302 283.551 244.997 283.414 244.772 283.169C244.547 282.925 244.42 282.594 244.42 282.248C244.42 281.902 244.547 281.571 244.772 281.327C244.997 281.082 245.302 280.945 245.62 280.945Z" fill="#E6E6E6" fill-opacity="0.65"/>
<path id="Vector_95" d="M915.267 294.919C915.585 294.919 915.891 295.057 916.115 295.301C916.34 295.545 916.467 295.877 916.467 296.222C916.467 296.568 916.34 296.9 916.115 297.144C915.891 297.388 915.585 297.526 915.267 297.526C914.949 297.526 914.644 297.388 914.419 297.144C914.194 296.9 914.068 296.568 914.068 296.222C914.068 295.877 914.194 295.545 914.419 295.301C914.644 295.057 914.949 294.919 915.267 294.919Z" fill="#E6E6E6" fill-opacity="0.65"/>
<path id="Vector_96" d="M105.008 149.33C105.232 149.33 105.447 149.427 105.606 149.599C105.764 149.771 105.853 150.005 105.853 150.249C105.853 150.492 105.764 150.726 105.606 150.898C105.447 151.07 105.232 151.167 105.008 151.167C104.783 151.167 104.568 151.07 104.41 150.898C104.251 150.726 104.162 150.492 104.162 150.249C104.162 150.005 104.251 149.771 104.41 149.599C104.568 149.427 104.783 149.33 105.008 149.33Z" fill="#E6E6E6" fill-opacity="0.65"/>
<path id="Vector_97" d="M774.655 163.305C774.879 163.305 775.094 163.401 775.253 163.574C775.412 163.746 775.501 163.979 775.501 164.223C775.501 164.467 775.412 164.7 775.253 164.873C775.094 165.045 774.879 165.142 774.655 165.142C774.431 165.142 774.216 165.045 774.057 164.873C773.899 164.7 773.81 164.467 773.81 164.223C773.81 163.979 773.899 163.746 774.057 163.574C774.216 163.401 774.431 163.305 774.655 163.305Z" fill="#E6E6E6" fill-opacity="0.65"/>
<path id="Vector_98" d="M33.9442 200.557C34.5543 200.557 35.1395 200.821 35.5709 201.29C36.0024 201.758 36.2448 202.394 36.2448 203.057C36.2448 203.72 36.0024 204.356 35.5709 204.824C35.1395 205.293 34.5543 205.556 33.9442 205.556C33.334 205.556 32.7488 205.293 32.3174 204.824C31.8859 204.356 31.6436 203.72 31.6436 203.057C31.6436 202.394 31.8859 201.758 32.3174 201.29C32.7488 200.821 33.334 200.557 33.9442 200.557Z" fill="#E6E6E6" fill-opacity="0.65"/>
<path id="Vector_99" d="M703.592 214.532C704.202 214.532 704.787 214.795 705.218 215.264C705.65 215.733 705.892 216.368 705.892 217.031C705.892 217.694 705.65 218.33 705.218 218.799C704.787 219.267 704.202 219.531 703.592 219.531C702.981 219.531 702.396 219.267 701.965 218.799C701.533 218.33 701.291 217.694 701.291 217.031C701.291 216.368 701.533 215.733 701.965 215.264C702.396 214.795 702.981 214.532 703.592 214.532Z" fill="#E6E6E6" fill-opacity="0.65"/>
<path id="Vector_100" d="M564.5 30.5115C565.11 30.5115 565.695 30.7748 566.127 31.2436C566.558 31.7123 566.8 32.348 566.8 33.0109C566.8 33.6738 566.558 34.3096 566.127 34.7783C565.695 35.247 565.11 35.5104 564.5 35.5104C563.89 35.5104 563.304 35.247 562.873 34.7783C562.442 34.3096 562.199 33.6738 562.199 33.0109C562.199 32.348 562.442 31.7123 562.873 31.2436C563.304 30.7748 563.89 30.5115 564.5 30.5115Z" fill="#E6E6E6" fill-opacity="0.65"/>
<path id="Vector_101" d="M1234.15 44.486C1234.76 44.486 1235.34 44.7493 1235.77 45.2181C1236.21 45.6868 1236.45 46.3225 1236.45 46.9854C1236.45 47.6483 1236.21 48.284 1235.77 48.7528C1235.34 49.2215 1234.76 49.4848 1234.15 49.4848C1233.54 49.4848 1232.95 49.2215 1232.52 48.7528C1232.09 48.284 1231.85 47.6483 1231.85 46.9854C1231.85 46.3225 1232.09 45.6868 1232.52 45.2181C1232.95 44.7493 1233.54 44.486 1234.15 44.486Z" fill="#E6E6E6" fill-opacity="0.65"/>
</g>
</g>
</g>
</g>
<defs>
<clipPath id="clip0_223_857">
<rect width="1404" height="817" fill="white"/>
</clipPath>
</defs>
</svg>
