<svg width="1404" height="817" viewBox="0 0 1404 817" fill="none" xmlns="http://www.w3.org/2000/svg">
<g clip-path="url(#clip0_330_806)">
<rect x="29.9998" y="19.6575" width="1374" height="800" fill="#393B41"/>
<rect x="29.9998" y="19.6575" width="1374" height="800" fill="#393B41"/>
<path d="M652.003 61.6574C460.503 -27.3426 272.004 649.657 122 410.157" stroke="white" stroke-width="3"/>
<path d="M29.9969 20.0905C37.9525 19.9756 45.628 23.0259 51.3347 28.5702C57.0414 34.1145 60.3119 41.6987 60.4267 49.6543C60.5416 57.61 57.4913 65.2855 51.947 70.9922C46.4027 76.6989 38.8185 79.9694 30.8628 80.0842L30.4298 50.0873L29.9969 20.0905Z" fill="#44C6EA"/>
<circle cx="80.9998" cy="712.657" r="20" fill="#44C6EA"/>
<circle cx="1280" cy="100.657" r="20" fill="#44C6EA"/>
<circle cx="411" cy="238.657" r="20" fill="#44C6EA"/>
<path d="M709.521 310.859C898.095 192.452 928.717 695.131 1406.32 762.274" stroke="white" stroke-width="3"/>
<path d="M1399.02 819.153C1178.47 788.509 983.196 128.562 699.236 388.088" stroke="#44C6EA" stroke-width="3"/>
<circle cx="1310" cy="737.657" r="10" fill="#44C6EA"/>
<circle cx="897" cy="404.657" r="10" fill="#44C6EA"/>
<path d="M150.387 39.6546C151.469 41.7909 154.634 42.1327 157.486 40.4237C160.337 38.7147 161.772 35.6384 160.691 33.5022C159.609 31.3659 156.443 31.0455 153.592 32.7331C150.741 34.4208 149.306 37.5183 150.387 39.6546Z" fill="#E6E6E6"/>
<path d="M820.035 53.629C821.116 55.7653 824.282 56.1071 827.133 54.3981C829.984 52.6891 831.42 49.6129 830.338 47.4766C829.257 45.3403 826.091 45.0199 823.24 46.7076C820.389 48.3952 818.953 51.4928 820.035 53.629Z" fill="#E6E6E6"/>
<path d="M131.668 112.715C132.592 114.53 135.345 114.851 137.842 113.313C140.339 111.775 141.598 109.04 140.693 107.331C139.789 105.622 137.016 105.195 134.519 106.733C132.022 108.271 130.763 110.899 131.668 112.715Z" fill="#E6E6E6"/>
<path d="M801.315 126.689C802.239 128.505 804.992 128.825 807.49 127.287C809.987 125.749 811.245 123.015 810.341 121.306C809.436 119.597 806.664 119.169 804.166 120.708C801.669 122.246 800.411 124.873 801.315 126.689Z" fill="#E6E6E6"/>
<path d="M142.109 108.485C142.22 108.645 142.36 108.779 142.521 108.879C142.681 108.979 142.858 109.043 143.042 109.066C143.225 109.09 143.411 109.074 143.589 109.018C143.766 108.962 143.932 108.868 144.075 108.741C144.822 108.293 145.176 107.459 144.881 106.883C144.586 106.306 143.76 106.199 143.013 106.626C142.266 107.054 141.814 107.908 142.109 108.485Z" fill="#E6E6E6"/>
<path d="M811.756 122.459C811.868 122.619 812.008 122.753 812.168 122.853C812.329 122.953 812.506 123.017 812.689 123.041C812.873 123.065 813.059 123.048 813.236 122.992C813.414 122.937 813.579 122.842 813.723 122.716C814.47 122.267 814.824 121.434 814.529 120.857C814.234 120.28 813.408 120.174 812.661 120.601C811.913 121.028 811.461 121.883 811.756 122.459Z" fill="#E6E6E6"/>
<path d="M173.315 105.259C173.508 106.214 173.973 107.078 174.645 107.73C175.316 108.381 176.158 108.787 177.053 108.889C177.948 108.991 178.85 108.784 179.631 108.298C180.412 107.813 181.032 107.072 181.404 106.182C181.776 105.291 181.881 104.296 181.703 103.338C181.525 102.38 181.075 101.506 180.415 100.842C179.755 100.177 178.919 99.7549 178.025 99.6352C177.132 99.5156 176.227 99.7043 175.438 100.175C174.55 100.562 173.833 101.307 173.437 102.254C173.041 103.201 172.998 104.278 173.315 105.259Z" fill="#E6E6E6"/>
<path d="M842.962 119.234C843.156 120.188 843.621 121.053 844.292 121.704C844.963 122.356 845.806 122.761 846.701 122.863C847.596 122.965 848.498 122.759 849.279 122.273C850.06 121.787 850.68 121.046 851.052 120.156C851.424 119.266 851.528 118.271 851.351 117.312C851.173 116.354 850.722 115.481 850.062 114.816C849.402 114.151 848.566 113.729 847.673 113.61C846.78 113.49 845.875 113.679 845.086 114.149C844.197 114.536 843.48 115.281 843.085 116.228C842.689 117.176 842.645 118.252 842.962 119.234Z" fill="#E6E6E6"/>
<path d="M171.486 97.9744C171.615 98.2227 171.788 98.4409 171.995 98.6166C172.202 98.7923 172.438 98.922 172.691 98.9984C172.944 99.0748 173.208 99.0963 173.469 99.0617C173.729 99.0271 173.981 98.9371 174.21 98.7969C174.438 98.6566 174.639 98.4688 174.801 98.2442C174.962 98.0196 175.082 97.7626 175.152 97.4878C175.222 97.2131 175.242 96.926 175.21 96.6429C175.179 96.3599 175.096 96.0864 174.967 95.8381C174.687 95.3973 174.265 95.0867 173.784 94.968C173.303 94.8493 172.799 94.9312 172.371 95.1973C171.924 95.4493 171.584 95.8776 171.419 96.3943C171.255 96.9109 171.279 97.4764 171.486 97.9744Z" fill="#E6E6E6"/>
<path d="M841.133 111.949C841.262 112.197 841.435 112.415 841.642 112.591C841.849 112.767 842.085 112.897 842.338 112.973C842.591 113.049 842.855 113.071 843.116 113.036C843.376 113.002 843.628 112.912 843.857 112.771C844.085 112.631 844.286 112.443 844.448 112.219C844.609 111.994 844.729 111.737 844.799 111.462C844.869 111.188 844.889 110.9 844.857 110.617C844.826 110.334 844.743 110.061 844.614 109.813C844.334 109.372 843.911 109.061 843.431 108.943C842.95 108.824 842.446 108.906 842.018 109.172C841.571 109.424 841.231 109.852 841.066 110.369C840.902 110.885 840.926 111.451 841.133 111.949Z" fill="#E6E6E6"/>
<path d="M330.425 792.707L337.838 794.202L339.49 802.683L341.141 794.202L348.554 792.707L341.181 790.763L339.49 782.752L337.799 790.763L330.425 792.707Z" fill="#E6E6E6"/>
<path d="M1000.07 806.681L1007.49 808.176L1009.14 816.657L1010.79 808.176L1018.2 806.681L1010.83 804.737L1009.14 796.726L1007.45 804.737L1000.07 806.681Z" fill="#E6E6E6"/>
<path d="M175.065 302.179L182.458 303.675L184.13 312.156L185.781 303.675L193.175 302.179L185.801 300.214L184.13 292.203L182.439 300.214L175.065 302.179Z" fill="#E6E6E6"/>
<path d="M844.712 316.154L852.105 317.649L853.777 326.13L855.428 317.649L862.822 316.154L855.448 314.188L853.777 306.177L852.086 314.188L844.712 316.154Z" fill="#E6E6E6"/>
<path d="M423.315 151.167L430.728 152.663L432.38 161.144L434.031 152.663L441.445 151.167L434.071 149.223L432.38 141.212L430.689 149.223L423.315 151.167Z" fill="#E6E6E6"/>
<path d="M1092.96 165.142L1100.37 166.637L1102.03 175.118L1103.68 166.637L1111.09 165.142L1103.72 163.198L1102.03 155.187L1100.34 163.198L1092.96 165.142Z" fill="#E6E6E6"/>
<path d="M569.354 375.496L573.503 376.329L574.427 381.071L575.351 376.329L579.481 375.496L575.371 374.406L574.427 369.92L573.483 374.406L569.354 375.496Z" fill="#E6E6E6"/>
<path d="M1239 389.47L1243.15 390.303L1244.07 395.046L1245 390.303L1249.13 389.47L1245.02 388.381L1244.07 383.894L1243.13 388.381L1239 389.47Z" fill="#E6E6E6"/>
<path d="M255.252 555.881L259.381 556.714L260.305 561.457L261.23 556.714L265.379 555.881L261.249 554.792L260.305 550.306L259.362 554.792L255.252 555.881Z" fill="#E6E6E6"/>
<path d="M924.899 569.856L929.029 570.689L929.953 575.431L930.877 570.689L935.026 569.856L930.897 568.766L929.953 564.28L929.009 568.766L924.899 569.856Z" fill="#E6E6E6"/>
<path d="M721.155 96.949L725.284 97.7822L726.208 102.525L727.132 97.7822L731.281 96.949L727.152 95.8595L726.208 91.3734L725.264 95.8595L721.155 96.949Z" fill="#E6E6E6"/>
<path d="M1390.8 110.924L1394.93 111.757L1395.86 116.499L1396.78 111.757L1400.93 110.924L1396.8 109.834L1395.86 105.348L1394.91 109.834L1390.8 110.924Z" fill="#E6E6E6"/>
<path d="M70.9673 264.068L75.0966 264.902L76.0208 269.644L76.9449 264.902L81.0939 264.068L76.9646 262.979L76.0208 258.514L75.0769 262.979L70.9673 264.068Z" fill="#E6E6E6"/>
<path d="M740.615 278.043L744.744 278.876L745.668 283.619L746.592 278.876L750.741 278.043L746.612 276.953L745.668 272.489L744.724 276.953L740.615 278.043Z" fill="#E6E6E6"/>
<path d="M27 717.874L31.1293 718.707L32.0535 723.449L32.9777 718.707L37.1266 717.874L32.9973 716.763L32.0535 712.298L31.1096 716.763L27 717.874Z" fill="#E6E6E6"/>
<path d="M696.647 731.848L700.777 732.681L701.701 737.424L702.625 732.681L706.774 731.848L702.645 730.737L701.701 726.272L700.757 730.737L696.647 731.848Z" fill="#E6E6E6"/>
<path d="M222.336 106.37L226.465 107.203L227.389 111.946L228.314 107.203L232.463 106.37L228.333 105.259L227.389 100.794L226.446 105.259L222.336 106.37Z" fill="#E6E6E6"/>
<path d="M891.983 120.344L896.113 121.178L897.037 125.92L897.961 121.178L902.11 120.344L897.981 119.234L897.037 114.769L896.093 119.234L891.983 120.344Z" fill="#E6E6E6"/>
<path d="M245.46 566.135C245.778 566.135 246.083 566.273 246.308 566.517C246.533 566.761 246.659 567.093 246.659 567.438C246.659 567.784 246.533 568.115 246.308 568.36C246.083 568.604 245.778 568.741 245.46 568.741C245.142 568.741 244.837 568.604 244.612 568.36C244.387 568.115 244.26 567.784 244.26 567.438C244.26 567.093 244.387 566.761 244.612 566.517C244.837 566.273 245.142 566.135 245.46 566.135Z" fill="#E6E6E6"/>
<path d="M915.107 580.11C915.425 580.11 915.73 580.247 915.955 580.491C916.18 580.736 916.307 581.067 916.307 581.413C916.307 581.758 916.18 582.09 915.955 582.334C915.73 582.579 915.425 582.716 915.107 582.716C914.789 582.716 914.484 582.579 914.259 582.334C914.034 582.09 913.908 581.758 913.908 581.413C913.908 581.067 914.034 580.736 914.259 580.491C914.484 580.247 914.789 580.11 915.107 580.11Z" fill="#E6E6E6"/>
<path d="M459.495 321.641C459.814 321.641 460.119 321.778 460.344 322.022C460.568 322.267 460.695 322.598 460.695 322.944C460.695 323.289 460.568 323.621 460.344 323.865C460.119 324.11 459.814 324.247 459.495 324.247C459.177 324.247 458.872 324.11 458.647 323.865C458.422 323.621 458.296 323.289 458.296 322.944C458.296 322.598 458.422 322.267 458.647 322.022C458.872 321.778 459.177 321.641 459.495 321.641Z" fill="#E6E6E6"/>
<path d="M1129.14 335.615C1129.46 335.615 1129.77 335.752 1129.99 335.997C1130.22 336.241 1130.34 336.573 1130.34 336.918C1130.34 337.264 1130.22 337.595 1129.99 337.84C1129.77 338.084 1129.46 338.221 1129.14 338.221C1128.82 338.221 1128.52 338.084 1128.29 337.84C1128.07 337.595 1127.94 337.264 1127.94 336.918C1127.94 336.573 1128.07 336.241 1128.29 335.997C1128.52 335.752 1128.82 335.615 1129.14 335.615Z" fill="#E6E6E6"/>
<path d="M579.717 573.612C580.035 573.612 580.34 573.749 580.565 573.994C580.79 574.238 580.916 574.57 580.916 574.915C580.916 575.261 580.79 575.592 580.565 575.837C580.34 576.081 580.035 576.218 579.717 576.218C579.398 576.218 579.093 576.081 578.868 575.837C578.643 575.592 578.517 575.261 578.517 574.915C578.517 574.57 578.643 574.238 578.868 573.994C579.093 573.749 579.398 573.612 579.717 573.612Z" fill="#E6E6E6"/>
<path d="M1249.36 587.587C1249.68 587.587 1249.99 587.724 1250.21 587.968C1250.44 588.213 1250.56 588.544 1250.56 588.89C1250.56 589.235 1250.44 589.567 1250.21 589.811C1249.99 590.056 1249.68 590.193 1249.36 590.193C1249.05 590.193 1248.74 590.056 1248.52 589.811C1248.29 589.567 1248.16 589.235 1248.16 588.89C1248.16 588.544 1248.29 588.213 1248.52 587.968C1248.74 587.724 1249.05 587.587 1249.36 587.587Z" fill="#E6E6E6"/>
<path d="M516.597 338.731C516.915 338.731 517.22 338.868 517.445 339.112C517.67 339.357 517.796 339.688 517.796 340.034C517.796 340.379 517.67 340.711 517.445 340.955C517.22 341.2 516.915 341.337 516.597 341.337C516.279 341.337 515.974 341.2 515.749 340.955C515.524 340.711 515.397 340.379 515.397 340.034C515.397 339.688 515.524 339.357 515.749 339.112C515.974 338.868 516.279 338.731 516.597 338.731Z" fill="#E6E6E6"/>
<path d="M1186.24 352.705C1186.56 352.705 1186.87 352.842 1187.09 353.087C1187.32 353.331 1187.44 353.663 1187.44 354.008C1187.44 354.354 1187.32 354.685 1187.09 354.93C1186.87 355.174 1186.56 355.311 1186.24 355.311C1185.93 355.311 1185.62 355.174 1185.4 354.93C1185.17 354.685 1185.04 354.354 1185.04 354.008C1185.04 353.663 1185.17 353.331 1185.4 353.087C1185.62 352.842 1185.93 352.705 1186.24 352.705Z" fill="#E6E6E6"/>
<path d="M275.505 542.679C275.709 542.713 275.896 542.825 276.031 542.996C276.166 543.166 276.24 543.384 276.24 543.608C276.24 543.833 276.166 544.051 276.031 544.221C275.896 544.392 275.709 544.504 275.505 544.538C275.3 544.504 275.113 544.392 274.979 544.221C274.844 544.051 274.77 543.833 274.77 543.608C274.77 543.384 274.844 543.166 274.979 542.996C275.113 542.825 275.3 542.713 275.505 542.679Z" fill="#E6E6E6"/>
<path d="M945.152 556.654C945.357 556.687 945.543 556.8 945.678 556.97C945.813 557.141 945.887 557.358 945.887 557.583C945.887 557.808 945.813 558.025 945.678 558.196C945.543 558.366 945.357 558.478 945.152 558.512C944.948 558.478 944.761 558.366 944.626 558.196C944.491 558.025 944.417 557.808 944.417 557.583C944.417 557.358 944.491 557.141 944.626 556.97C944.761 556.8 944.948 556.687 945.152 556.654Z" fill="#E6E6E6"/>
<path d="M662.46 118.312C662.665 118.345 662.851 118.458 662.986 118.628C663.121 118.799 663.195 119.016 663.195 119.241C663.195 119.466 663.121 119.683 662.986 119.854C662.851 120.024 662.665 120.136 662.46 120.17C662.256 120.136 662.069 120.024 661.934 119.854C661.799 119.683 661.725 119.466 661.725 119.241C661.725 119.016 661.799 118.799 661.934 118.628C662.069 118.458 662.256 118.345 662.46 118.312Z" fill="#E6E6E6"/>
<path d="M1332.11 132.286C1332.31 132.32 1332.5 132.432 1332.63 132.603C1332.77 132.773 1332.84 132.991 1332.84 133.215C1332.84 133.44 1332.77 133.658 1332.63 133.828C1332.5 133.998 1332.31 134.111 1332.11 134.145C1331.9 134.111 1331.72 133.998 1331.58 133.828C1331.45 133.658 1331.37 133.44 1331.37 133.215C1331.37 132.991 1331.45 132.773 1331.58 132.603C1331.72 132.432 1331.9 132.32 1332.11 132.286Z" fill="#E6E6E6"/>
<path d="M433.382 360.264C433.606 360.264 433.821 360.361 433.98 360.533C434.138 360.705 434.227 360.939 434.227 361.183C434.227 361.426 434.138 361.66 433.98 361.832C433.821 362.005 433.606 362.101 433.382 362.101C433.157 362.101 432.942 362.005 432.784 361.832C432.625 361.66 432.536 361.426 432.536 361.183C432.536 360.939 432.625 360.705 432.784 360.533C432.942 360.361 433.157 360.264 433.382 360.264Z" fill="#E6E6E6"/>
<path d="M1103.03 374.239C1103.25 374.239 1103.47 374.335 1103.63 374.508C1103.79 374.68 1103.87 374.913 1103.87 375.157C1103.87 375.401 1103.79 375.634 1103.63 375.807C1103.47 375.979 1103.25 376.076 1103.03 376.076C1102.8 376.076 1102.59 375.979 1102.43 375.807C1102.27 375.634 1102.18 375.401 1102.18 375.157C1102.18 374.913 1102.27 374.68 1102.43 374.508C1102.59 374.335 1102.8 374.239 1103.03 374.239Z" fill="#E6E6E6"/>
<path d="M325.214 424.501C325.438 424.501 325.653 424.598 325.812 424.77C325.971 424.943 326.06 425.176 326.06 425.42C326.06 425.664 325.971 425.897 325.812 426.069C325.653 426.242 325.438 426.339 325.214 426.339C324.99 426.339 324.775 426.242 324.616 426.069C324.458 425.897 324.369 425.664 324.369 425.42C324.369 425.176 324.458 424.943 324.616 424.77C324.775 424.598 324.99 424.501 325.214 424.501Z" fill="#E6E6E6"/>
<path d="M994.861 438.476C995.085 438.476 995.3 438.573 995.459 438.745C995.618 438.917 995.707 439.151 995.707 439.394C995.707 439.638 995.618 439.872 995.459 440.044C995.3 440.216 995.085 440.313 994.861 440.313C994.637 440.313 994.422 440.216 994.263 440.044C994.105 439.872 994.016 439.638 994.016 439.394C994.016 439.151 994.105 438.917 994.263 438.745C994.422 438.573 994.637 438.476 994.861 438.476Z" fill="#E6E6E6"/>
<path d="M512.861 421.382C513.471 421.382 514.056 421.646 514.488 422.115C514.919 422.583 515.162 423.219 515.162 423.882C515.162 424.545 514.919 425.18 514.488 425.649C514.056 426.118 513.471 426.381 512.861 426.381C512.251 426.381 511.666 426.118 511.234 425.649C510.803 425.18 510.561 424.545 510.561 423.882C510.561 423.219 510.803 422.583 511.234 422.115C511.666 421.646 512.251 421.382 512.861 421.382Z" fill="#E6E6E6"/>
<path d="M1182.51 435.357C1183.12 435.357 1183.7 435.62 1184.13 436.089C1184.57 436.558 1184.81 437.193 1184.81 437.856C1184.81 438.519 1184.57 439.155 1184.13 439.624C1183.7 440.092 1183.12 440.356 1182.51 440.356C1181.9 440.356 1181.31 440.092 1180.88 439.624C1180.45 439.155 1180.21 438.519 1180.21 437.856C1180.21 437.193 1180.45 436.558 1180.88 436.089C1181.31 435.62 1181.9 435.357 1182.51 435.357Z" fill="#E6E6E6"/>
<path d="M612.928 190.026L620.341 191.521L621.993 200.002L623.645 191.521L631.058 190.026L623.684 188.06L621.993 180.049L620.302 188.06L612.928 190.026Z" fill="#E6E6E6"/>
<path d="M1282.58 204L1289.99 205.496L1291.64 213.977L1293.29 205.496L1300.7 204L1293.33 202.035L1291.64 194.024L1289.95 202.035L1282.58 204Z" fill="#E6E6E6"/>
<path d="M298 11.5842L302.129 12.4173L303.053 17.1598L303.978 12.4173L308.127 11.5842L303.997 10.4947L303.053 6.00854L302.11 10.4947L298 11.5842Z" fill="#E6E6E6"/>
<path d="M967.647 25.5587L971.777 26.3918L972.701 31.1343L973.625 26.3918L977.774 25.5587L973.645 24.4692L972.701 19.983L971.757 24.4692L967.647 25.5587Z" fill="#E6E6E6"/>
<path d="M64.1829 139.354C64.501 139.354 64.8061 139.491 65.031 139.735C65.2559 139.98 65.3823 140.311 65.3823 140.657C65.3823 141.002 65.2559 141.334 65.031 141.578C64.8061 141.823 64.501 141.96 64.1829 141.96C63.8647 141.96 63.5596 141.823 63.3347 141.578C63.1098 141.334 62.9834 141.002 62.9834 140.657C62.9834 140.311 63.1098 139.98 63.3347 139.735C63.5596 139.491 63.8647 139.354 64.1829 139.354Z" fill="#E6E6E6"/>
<path d="M733.83 153.328C734.148 153.328 734.454 153.466 734.678 153.71C734.903 153.954 735.03 154.286 735.03 154.631C735.03 154.977 734.903 155.308 734.678 155.553C734.454 155.797 734.148 155.934 733.83 155.934C733.512 155.934 733.207 155.797 732.982 155.553C732.757 155.308 732.631 154.977 732.631 154.631C732.631 154.286 732.757 153.954 732.982 153.71C733.207 153.466 733.512 153.328 733.83 153.328Z" fill="#E6E6E6"/>
<path d="M83.0208 485.064C83.3389 485.064 83.644 485.202 83.8689 485.446C84.0938 485.69 84.2202 486.022 84.2202 486.367C84.2202 486.713 84.0938 487.044 83.8689 487.289C83.644 487.533 83.3389 487.67 83.0208 487.67C82.7026 487.67 82.3975 487.533 82.1726 487.289C81.9477 487.044 81.8213 486.713 81.8213 486.367C81.8213 486.022 81.9477 485.69 82.1726 485.446C82.3975 485.202 82.7026 485.064 83.0208 485.064Z" fill="#E6E6E6"/>
<path d="M752.668 499.039C752.986 499.039 753.291 499.176 753.516 499.42C753.741 499.665 753.868 499.996 753.868 500.342C753.868 500.687 753.741 501.019 753.516 501.263C753.291 501.508 752.986 501.645 752.668 501.645C752.35 501.645 752.045 501.508 751.82 501.263C751.595 501.019 751.469 500.687 751.469 500.342C751.469 499.996 751.595 499.665 751.82 499.42C752.045 499.176 752.35 499.039 752.668 499.039Z" fill="#E6E6E6"/>
<path d="M180.315 509.119C180.633 509.119 180.938 509.256 181.163 509.5C181.388 509.745 181.514 510.076 181.514 510.422C181.514 510.767 181.388 511.099 181.163 511.343C180.938 511.588 180.633 511.725 180.315 511.725C179.997 511.725 179.691 511.588 179.467 511.343C179.242 511.099 179.115 510.767 179.115 510.422C179.115 510.076 179.242 509.745 179.467 509.5C179.691 509.256 179.997 509.119 180.315 509.119Z" fill="#E6E6E6"/>
<path d="M849.962 523.093C850.28 523.093 850.585 523.23 850.81 523.475C851.035 523.719 851.162 524.051 851.162 524.396C851.162 524.742 851.035 525.073 850.81 525.318C850.585 525.562 850.28 525.699 849.962 525.699C849.644 525.699 849.339 525.562 849.114 525.318C848.889 525.073 848.763 524.742 848.763 524.396C848.763 524.051 848.889 523.719 849.114 523.475C849.339 523.23 849.644 523.093 849.962 523.093Z" fill="#E6E6E6"/>
<path d="M111.965 248.623C112.283 248.623 112.588 248.761 112.813 249.005C113.038 249.249 113.165 249.581 113.165 249.926C113.165 250.272 113.038 250.603 112.813 250.848C112.588 251.092 112.283 251.23 111.965 251.23C111.647 251.23 111.342 251.092 111.117 250.848C110.892 250.603 110.766 250.272 110.766 249.926C110.766 249.581 110.892 249.249 111.117 249.005C111.342 248.761 111.647 248.623 111.965 248.623Z" fill="#E6E6E6"/>
<path d="M781.613 262.598C781.931 262.598 782.236 262.735 782.461 262.979C782.686 263.224 782.812 263.555 782.812 263.901C782.812 264.247 782.686 264.578 782.461 264.822C782.236 265.067 781.931 265.204 781.613 265.204C781.294 265.204 780.989 265.067 780.764 264.822C780.539 264.578 780.413 264.247 780.413 263.901C780.413 263.555 780.539 263.224 780.764 262.979C780.989 262.735 781.294 262.598 781.613 262.598Z" fill="#E6E6E6"/>
<path d="M50.5374 23.6327C50.8555 23.6327 51.1606 23.77 51.3855 24.0144C51.6104 24.2587 51.7368 24.5902 51.7368 24.9358C51.7368 25.2814 51.6104 25.6129 51.3855 25.8573C51.1606 26.1016 50.8555 26.2389 50.5374 26.2389C50.2192 26.2389 49.9141 26.1016 49.6892 25.8573C49.4643 25.6129 49.3379 25.2814 49.3379 24.9358C49.3379 24.5902 49.4643 24.2587 49.6892 24.0144C49.9141 23.77 50.2192 23.6327 50.5374 23.6327Z" fill="#E6E6E6"/>
<path d="M720.185 37.6071C720.503 37.6071 720.808 37.7444 721.033 37.9888C721.258 38.2332 721.384 38.5646 721.384 38.9102C721.384 39.2558 721.258 39.5873 721.033 39.8317C720.808 40.0761 720.503 40.2134 720.185 40.2134C719.867 40.2134 719.562 40.0761 719.337 39.8317C719.112 39.5873 718.985 39.2558 718.985 38.9102C718.985 38.5646 719.112 38.2332 719.337 37.9888C719.562 37.7444 719.867 37.6071 720.185 37.6071Z" fill="#E6E6E6"/>
<path d="M159.453 422.921C159.657 422.954 159.844 423.067 159.979 423.237C160.114 423.408 160.188 423.625 160.188 423.85C160.188 424.075 160.114 424.292 159.979 424.462C159.844 424.633 159.657 424.745 159.453 424.779C159.248 424.745 159.062 424.633 158.927 424.462C158.792 424.292 158.718 424.075 158.718 423.85C158.718 423.625 158.792 423.408 158.927 423.237C159.062 423.067 159.248 422.954 159.453 422.921Z" fill="#E6E6E6"/>
<path d="M829.1 436.895C829.304 436.929 829.491 437.041 829.626 437.212C829.761 437.382 829.835 437.599 829.835 437.824C829.835 438.049 829.761 438.266 829.626 438.437C829.491 438.607 829.304 438.72 829.1 438.754C828.895 438.72 828.709 438.607 828.574 438.437C828.439 438.266 828.365 438.049 828.365 437.824C828.365 437.599 828.439 437.382 828.574 437.212C828.709 437.041 828.895 436.929 829.1 436.895Z" fill="#E6E6E6"/>
<path d="M338.506 541.12C338.711 541.153 338.897 541.266 339.032 541.436C339.167 541.607 339.241 541.824 339.241 542.049C339.241 542.274 339.167 542.491 339.032 542.662C338.897 542.832 338.711 542.944 338.506 542.978C338.302 542.944 338.115 542.832 337.98 542.662C337.845 542.491 337.771 542.274 337.771 542.049C337.771 541.824 337.845 541.607 337.98 541.436C338.115 541.266 338.302 541.153 338.506 541.12Z" fill="#E6E6E6"/>
<path d="M1008.15 555.094C1008.36 555.128 1008.54 555.24 1008.68 555.411C1008.81 555.581 1008.89 555.799 1008.89 556.024C1008.89 556.248 1008.81 556.466 1008.68 556.636C1008.54 556.807 1008.36 556.919 1008.15 556.953C1007.95 556.919 1007.76 556.807 1007.63 556.636C1007.49 556.466 1007.42 556.248 1007.42 556.024C1007.42 555.799 1007.49 555.581 1007.63 555.411C1007.76 555.24 1007.95 555.128 1008.15 555.094Z" fill="#E6E6E6"/>
<path d="M415.292 47.516C415.497 47.5498 415.683 47.6621 415.818 47.8326C415.953 48.0031 416.027 48.2205 416.027 48.4453C416.027 48.6701 415.953 48.8874 415.818 49.0579C415.683 49.2284 415.497 49.3407 415.292 49.3745C415.088 49.3407 414.901 49.2284 414.766 49.0579C414.631 48.8874 414.557 48.6701 414.557 48.4453C414.557 48.2205 414.631 48.0031 414.766 47.8326C414.901 47.6621 415.088 47.5498 415.292 47.516Z" fill="#E6E6E6"/>
<path d="M1084.94 61.4905C1085.14 61.5243 1085.33 61.6367 1085.47 61.8072C1085.6 61.9777 1085.67 62.195 1085.67 62.4198C1085.67 62.6446 1085.6 62.862 1085.47 63.0325C1085.33 63.203 1085.14 63.3153 1084.94 63.3491C1084.73 63.3153 1084.55 63.203 1084.41 63.0325C1084.28 62.862 1084.2 62.6446 1084.2 62.4198C1084.2 62.195 1084.28 61.9777 1084.41 61.8072C1084.55 61.6367 1084.73 61.5243 1084.94 61.4905Z" fill="#E6E6E6"/>
<path d="M260.325 390.15C260.935 390.15 261.52 390.414 261.952 390.882C262.383 391.351 262.626 391.987 262.626 392.65C262.626 393.313 262.383 393.948 261.952 394.417C261.52 394.886 260.935 395.149 260.325 395.149C259.715 395.149 259.13 394.886 258.698 394.417C258.267 393.948 258.024 393.313 258.024 392.65C258.024 391.987 258.267 391.351 258.698 390.882C259.13 390.414 259.715 390.15 260.325 390.15Z" fill="#E6E6E6"/>
<path d="M929.973 404.125C930.583 404.125 931.168 404.388 931.599 404.857C932.031 405.326 932.273 405.961 932.273 406.624C932.273 407.287 932.031 407.923 931.599 408.392C931.168 408.86 930.583 409.124 929.973 409.124C929.362 409.124 928.777 408.86 928.346 408.392C927.914 407.923 927.672 407.287 927.672 406.624C927.672 405.961 927.914 405.326 928.346 404.857C928.777 404.388 929.362 404.125 929.973 404.125Z" fill="#E6E6E6"/>
<path d="M92.4984 420.421C93.1085 420.421 93.6937 420.684 94.1251 421.153C94.5566 421.622 94.799 422.258 94.799 422.921C94.799 423.583 94.5566 424.219 94.1251 424.688C93.6937 425.157 93.1085 425.42 92.4984 425.42C91.8882 425.42 91.303 425.157 90.8716 424.688C90.4401 424.219 90.1978 423.583 90.1978 422.921C90.1978 422.258 90.4401 421.622 90.8716 421.153C91.303 420.684 91.8882 420.421 92.4984 420.421Z" fill="#E6E6E6"/>
<path d="M762.146 434.396C762.756 434.396 763.341 434.659 763.773 435.128C764.204 435.596 764.446 436.232 764.446 436.895C764.446 437.558 764.204 438.194 763.773 438.662C763.341 439.131 762.756 439.394 762.146 439.394C761.536 439.394 760.95 439.131 760.519 438.662C760.088 438.194 759.845 437.558 759.845 436.895C759.845 436.232 760.088 435.596 760.519 435.128C760.95 434.659 761.536 434.396 762.146 434.396Z" fill="#E6E6E6"/>
<path d="M285.809 324.247L289.938 325.08L290.863 329.822L291.787 325.08L295.936 324.247L291.806 323.157L290.863 318.671L289.938 323.157L285.809 324.247Z" fill="#E6E6E6"/>
<path d="M955.456 338.221L959.585 339.054L960.51 343.797L961.434 339.054L965.583 338.221L961.453 337.132L960.51 332.646L959.585 337.132L955.456 338.221Z" fill="#E6E6E6"/>
<path d="M290.862 517.834L295.011 518.668L295.935 523.41L296.86 518.668L300.989 517.834L296.879 516.724L295.935 512.259L294.992 516.724L290.862 517.834Z" fill="#E6E6E6"/>
<path d="M960.51 531.809L964.659 532.642L965.583 537.385L966.507 532.642L970.636 531.809L966.527 530.698L965.583 526.233L964.639 530.698L960.51 531.809Z" fill="#E6E6E6"/>
<path d="M461.265 97.9958C461.583 97.9958 461.888 98.1331 462.113 98.3775C462.338 98.6218 462.464 98.9533 462.464 99.2989C462.464 99.6445 462.338 99.976 462.113 100.22C461.888 100.465 461.583 100.602 461.265 100.602C460.947 100.602 460.642 100.465 460.417 100.22C460.192 99.976 460.065 99.6445 460.065 99.2989C460.065 98.9533 460.192 98.6218 460.417 98.3775C460.642 98.1331 460.947 97.9958 461.265 97.9958Z" fill="#E6E6E6"/>
<path d="M1130.91 111.97C1131.23 111.97 1131.54 112.108 1131.76 112.352C1131.99 112.596 1132.11 112.928 1132.11 113.273C1132.11 113.619 1131.99 113.95 1131.76 114.195C1131.54 114.439 1131.23 114.577 1130.91 114.577C1130.59 114.577 1130.29 114.439 1130.06 114.195C1129.84 113.95 1129.71 113.619 1129.71 113.273C1129.71 112.928 1129.84 112.596 1130.06 112.352C1130.29 112.108 1130.59 111.97 1130.91 111.97Z" fill="#E6E6E6"/>
<path d="M490.131 462.078C490.355 462.078 490.57 462.175 490.729 462.347C490.887 462.519 490.976 462.753 490.976 462.997C490.976 463.24 490.887 463.474 490.729 463.646C490.57 463.819 490.355 463.915 490.131 463.915C489.906 463.915 489.691 463.819 489.533 463.646C489.374 463.474 489.285 463.24 489.285 462.997C489.285 462.753 489.374 462.519 489.533 462.347C489.691 462.175 489.906 462.078 490.131 462.078Z" fill="#E6E6E6"/>
<path d="M1159.78 476.053C1160 476.053 1160.22 476.149 1160.38 476.322C1160.53 476.494 1160.62 476.728 1160.62 476.971C1160.62 477.215 1160.53 477.449 1160.38 477.621C1160.22 477.793 1160 477.89 1159.78 477.89C1159.55 477.89 1159.34 477.793 1159.18 477.621C1159.02 477.449 1158.93 477.215 1158.93 476.971C1158.93 476.728 1159.02 476.494 1159.18 476.322C1159.34 476.149 1159.55 476.053 1159.78 476.053Z" fill="#E6E6E6"/>
<path d="M128.935 305.298L133.084 306.131L134.008 310.874L134.932 306.131L139.081 305.298L134.952 304.209L134.008 299.723L133.064 304.209L128.935 305.298Z" fill="#E6E6E6"/>
<path d="M798.582 319.273L802.731 320.106L803.655 324.848L804.579 320.106L808.728 319.273L804.599 318.183L803.655 313.697L802.711 318.183L798.582 319.273Z" fill="#E6E6E6"/>
<path d="M81.094 377.076C81.4121 377.076 81.7172 377.214 81.9421 377.458C82.1671 377.702 82.2935 378.034 82.2935 378.38C82.2935 378.725 82.1671 379.057 81.9421 379.301C81.7172 379.545 81.4121 379.683 81.094 379.683C80.7759 379.683 80.4708 379.545 80.2458 379.301C80.0209 379.057 79.8945 378.725 79.8945 378.38C79.8945 378.034 80.0209 377.702 80.2458 377.458C80.4708 377.214 80.7759 377.076 81.094 377.076Z" fill="#E6E6E6"/>
<path d="M750.741 391.051C751.06 391.051 751.365 391.188 751.59 391.433C751.815 391.677 751.941 392.009 751.941 392.354C751.941 392.7 751.815 393.031 751.59 393.276C751.365 393.52 751.06 393.657 750.741 393.657C750.423 393.657 750.118 393.52 749.893 393.276C749.668 393.031 749.542 392.7 749.542 392.354C749.542 392.009 749.668 391.677 749.893 391.433C750.118 391.188 750.423 391.051 750.741 391.051Z" fill="#E6E6E6"/>
<path d="M246.62 280.945C246.938 280.945 247.243 281.082 247.468 281.326C247.693 281.571 247.819 281.902 247.819 282.248C247.819 282.594 247.693 282.925 247.468 283.169C247.243 283.414 246.938 283.551 246.62 283.551C246.302 283.551 245.997 283.414 245.772 283.169C245.547 282.925 245.42 282.594 245.42 282.248C245.42 281.902 245.547 281.571 245.772 281.326C245.997 281.082 246.302 280.945 246.62 280.945Z" fill="#E6E6E6"/>
<path d="M916.267 294.919C916.585 294.919 916.891 295.057 917.115 295.301C917.34 295.545 917.467 295.877 917.467 296.222C917.467 296.568 917.34 296.899 917.115 297.144C916.891 297.388 916.585 297.526 916.267 297.526C915.949 297.526 915.644 297.388 915.419 297.144C915.194 296.899 915.068 296.568 915.068 296.222C915.068 295.877 915.194 295.545 915.419 295.301C915.644 295.057 915.949 294.919 916.267 294.919Z" fill="#E6E6E6"/>
<path d="M106.008 149.33C106.232 149.33 106.447 149.427 106.606 149.599C106.764 149.771 106.853 150.005 106.853 150.249C106.853 150.492 106.764 150.726 106.606 150.898C106.447 151.07 106.232 151.167 106.008 151.167C105.783 151.167 105.568 151.07 105.41 150.898C105.251 150.726 105.162 150.492 105.162 150.249C105.162 150.005 105.251 149.771 105.41 149.599C105.568 149.427 105.783 149.33 106.008 149.33Z" fill="#E6E6E6"/>
<path d="M775.655 163.305C775.879 163.305 776.094 163.401 776.253 163.574C776.412 163.746 776.501 163.979 776.501 164.223C776.501 164.467 776.412 164.7 776.253 164.873C776.094 165.045 775.879 165.142 775.655 165.142C775.431 165.142 775.216 165.045 775.057 164.873C774.899 164.7 774.81 164.467 774.81 164.223C774.81 163.979 774.899 163.746 775.057 163.574C775.216 163.401 775.431 163.305 775.655 163.305Z" fill="#E6E6E6"/>
<path d="M34.9442 200.557C35.5543 200.557 36.1395 200.821 36.5709 201.29C37.0024 201.758 37.2448 202.394 37.2448 203.057C37.2448 203.72 37.0024 204.356 36.5709 204.824C36.1395 205.293 35.5543 205.556 34.9442 205.556C34.334 205.556 33.7488 205.293 33.3174 204.824C32.8859 204.356 32.6436 203.72 32.6436 203.057C32.6436 202.394 32.8859 201.758 33.3174 201.29C33.7488 200.821 34.334 200.557 34.9442 200.557Z" fill="#E6E6E6"/>
<path d="M704.592 214.532C705.202 214.532 705.787 214.795 706.218 215.264C706.65 215.733 706.892 216.368 706.892 217.031C706.892 217.694 706.65 218.33 706.218 218.799C705.787 219.267 705.202 219.531 704.592 219.531C703.981 219.531 703.396 219.267 702.965 218.799C702.533 218.33 702.291 217.694 702.291 217.031C702.291 216.368 702.533 215.733 702.965 215.264C703.396 214.795 703.981 214.532 704.592 214.532Z" fill="#E6E6E6"/>
<path d="M565.5 30.5114C566.11 30.5114 566.695 30.7747 567.127 31.2435C567.558 31.7122 567.8 32.3479 567.8 33.0108C567.8 33.6737 567.558 34.3095 567.127 34.7782C566.695 35.2469 566.11 35.5103 565.5 35.5103C564.89 35.5103 564.304 35.2469 563.873 34.7782C563.442 34.3095 563.199 33.6737 563.199 33.0108C563.199 32.3479 563.442 31.7122 563.873 31.2435C564.304 30.7747 564.89 30.5114 565.5 30.5114Z" fill="#E6E6E6"/>
<path d="M1235.15 44.4859C1235.76 44.4859 1236.34 44.7492 1236.77 45.218C1237.21 45.6867 1237.45 46.3224 1237.45 46.9853C1237.45 47.6482 1237.21 48.2839 1236.77 48.7527C1236.34 49.2214 1235.76 49.4847 1235.15 49.4847C1234.54 49.4847 1233.95 49.2214 1233.52 48.7527C1233.09 48.2839 1232.85 47.6482 1232.85 46.9853C1232.85 46.3224 1233.09 45.6867 1233.52 45.218C1233.95 44.7492 1234.54 44.4859 1235.15 44.4859Z" fill="#E6E6E6"/>
</g>
<defs>
<clipPath id="clip0_330_806">
<rect width="1404" height="817" fill="white"/>
</clipPath>
</defs>
</svg>
