<svg width="30" height="30" viewBox="0 0 30 30" fill="none" xmlns="http://www.w3.org/2000/svg">
<path d="M8.71172 10.0383C8.53581 9.86237 8.43698 9.62378 8.43698 9.375C8.43698 9.12622 8.53581 8.88763 8.71172 8.71172C8.88763 8.53581 9.12622 8.43698 9.375 8.43698C9.62378 8.43698 9.86237 8.53581 10.0383 8.71172L14.0625 12.7371V2.8125C14.0625 2.56386 14.1613 2.3254 14.3371 2.14959C14.5129 1.97377 14.7514 1.875 15 1.875C15.2486 1.875 15.4871 1.97377 15.6629 2.14959C15.8387 2.3254 15.9375 2.56386 15.9375 2.8125V12.7371L19.9617 8.71172C20.1376 8.53581 20.3762 8.43698 20.625 8.43698C20.8738 8.43698 21.1124 8.53581 21.2883 8.71172C21.4642 8.88763 21.563 9.12622 21.563 9.375C21.563 9.62378 21.4642 9.86237 21.2883 10.0383L15.6633 15.6633C15.5762 15.7504 15.4728 15.8196 15.359 15.8668C15.2452 15.914 15.1232 15.9382 15 15.9382C14.8768 15.9382 14.7548 15.914 14.641 15.8668C14.5272 15.8196 14.4238 15.7504 14.3367 15.6633L8.71172 10.0383ZM28.125 15.9375V23.4375C28.125 23.9348 27.9275 24.4117 27.5758 24.7633C27.2242 25.115 26.7473 25.3125 26.25 25.3125H3.75C3.25272 25.3125 2.77581 25.115 2.42417 24.7633C2.07254 24.4117 1.875 23.9348 1.875 23.4375V15.9375C1.875 15.4402 2.07254 14.9633 2.42417 14.6117C2.77581 14.26 3.25272 14.0625 3.75 14.0625H9.89062C9.9522 14.0625 10.0132 14.0745 10.0701 14.0981C10.127 14.1216 10.1787 14.1561 10.2223 14.1996L13.0078 16.9922C13.2691 17.2544 13.5796 17.4624 13.9214 17.6044C14.2633 17.7463 14.6298 17.8194 15 17.8194C15.3702 17.8194 15.7367 17.7463 16.0786 17.6044C16.4204 17.4624 16.7309 17.2544 16.9922 16.9922L19.7812 14.2031C19.8678 14.1148 19.9857 14.0643 20.1094 14.0625H26.25C26.7473 14.0625 27.2242 14.26 27.5758 14.6117C27.9275 14.9633 28.125 15.4402 28.125 15.9375ZM23.4375 19.6875C23.4375 19.4094 23.355 19.1375 23.2005 18.9062C23.046 18.675 22.8264 18.4947 22.5694 18.3883C22.3124 18.2819 22.0297 18.254 21.7569 18.3083C21.4841 18.3625 21.2335 18.4965 21.0369 18.6931C20.8402 18.8898 20.7063 19.1404 20.652 19.4132C20.5978 19.6859 20.6256 19.9687 20.732 20.2256C20.8385 20.4826 21.0187 20.7022 21.25 20.8568C21.4812 21.0113 21.7531 21.0938 22.0312 21.0938C22.4042 21.0938 22.7619 20.9456 23.0256 20.6819C23.2893 20.4181 23.4375 20.0605 23.4375 19.6875Z" fill="white"/>
</svg>
