<svg width="535" height="398" viewBox="0 0 535 398" fill="none" xmlns="http://www.w3.org/2000/svg">
<path d="M534.45 349.756H0.307617V350.023H534.45V349.756Z" fill="#EBEBEB"/>
<path d="M480.928 366.945H445.547V367.212H480.928V366.945Z" fill="#EBEBEB"/>
<path d="M354.145 369.851H344.861V370.118H354.145V369.851Z" fill="#EBEBEB"/>
<path d="M444.479 357.031H423.979V357.298H444.479V357.031Z" fill="#EBEBEB"/>
<path d="M102.489 358.826H56.3496V359.093H102.489V358.826Z" fill="#EBEBEB"/>
<path d="M118.769 358.826H112.007V359.093H118.769V358.826Z" fill="#EBEBEB"/>
<path d="M240.833 363.334H140.756V363.601H240.833V363.334Z" fill="#EBEBEB"/>
<path d="M253.49 302.111H47.2152C45.5993 302.108 44.0505 301.464 42.9088 300.32C41.7672 299.177 41.126 297.627 41.126 296.011V6.04649C41.14 4.43982 41.7875 2.90357 42.9276 1.77145C44.0677 0.639323 45.6085 0.00275231 47.2152 0H253.49C255.108 0 256.66 0.642667 257.803 1.78662C258.947 2.93057 259.59 4.48211 259.59 6.0999V296.011C259.59 297.629 258.947 299.18 257.803 300.324C256.66 301.468 255.108 302.111 253.49 302.111ZM47.2152 0.213658C45.6701 0.216488 44.1892 0.832263 43.0977 1.92582C42.0061 3.01939 41.393 4.50137 41.393 6.04649V296.011C41.393 297.556 42.0061 299.038 43.0977 300.132C44.1892 301.225 45.6701 301.841 47.2152 301.844H253.49C255.036 301.841 256.518 301.225 257.612 300.132C258.705 299.039 259.32 297.557 259.323 296.011V6.04649C259.32 4.50039 258.705 3.01843 257.612 1.92517C256.518 0.831916 255.036 0.216482 253.49 0.213658H47.2152Z" fill="#EBEBEB"/>
<path d="M484.571 302.111H278.285C276.669 302.108 275.119 301.464 273.975 300.321C272.832 299.178 272.188 297.628 272.186 296.011V6.04649C272.202 4.43884 272.852 2.90261 273.994 1.77078C275.136 0.63895 276.678 0.0027223 278.285 0H484.571C486.176 0.00555988 487.714 0.643373 488.852 1.7752C489.99 2.90702 490.636 4.44166 490.65 6.04649V296.011C490.65 297.625 490.01 299.173 488.871 300.317C487.731 301.46 486.185 302.105 484.571 302.111ZM278.285 0.213658C276.739 0.216482 275.257 0.831916 274.164 1.92517C273.071 3.01843 272.455 4.50039 272.453 6.04649V296.011C272.455 297.557 273.071 299.039 274.164 300.132C275.257 301.225 276.739 301.841 278.285 301.844H484.571C486.117 301.841 487.599 301.225 488.692 300.132C489.786 299.039 490.401 297.557 490.404 296.011V6.04649C490.401 4.50039 489.786 3.01843 488.692 1.92517C487.599 0.831916 486.117 0.216482 484.571 0.213658H278.285Z" fill="#EBEBEB"/>
<path d="M378.405 46.0859C378.407 45.3959 378.271 44.7124 378.007 44.0752C377.742 43.4379 377.353 42.8596 376.864 42.3736C376.374 41.8877 375.792 41.5039 375.153 41.2444C374.513 40.9849 373.829 40.8549 373.139 40.862C372.629 40.8618 372.122 40.9338 371.633 41.0756C371.71 40.545 371.749 40.0095 371.75 39.4732C371.75 36.5482 370.591 33.7423 368.527 31.67C366.462 29.5977 363.661 28.4278 360.736 28.4165C360.052 28.4172 359.369 28.4779 358.696 28.5981C357.605 26.8061 355.961 25.4175 354.012 24.6417C352.063 23.866 349.915 23.7451 347.891 24.2975C345.867 24.8498 344.078 26.0454 342.794 27.7038C341.509 29.3621 340.799 31.3933 340.77 33.4908H340.61C338.299 33.5708 336.109 34.5451 334.503 36.2082C332.896 37.8713 331.998 40.0933 331.998 42.4057C331.998 44.718 332.896 46.94 334.503 48.6031C336.109 50.2662 338.299 51.2405 340.61 51.3205H373.32C374.683 51.2816 375.976 50.7129 376.926 49.7354C377.875 48.7579 378.406 47.4487 378.405 46.0859Z" fill="#F0F0F0"/>
<path d="M359.198 53.895V43.7142H350.897V53.895H344.135L355.053 63.125L365.97 53.895H359.198Z" fill="#E0E0E0"/>
<path d="M214.691 61.4904C214.691 58.5485 213.524 55.7269 211.444 53.6457C209.365 51.5644 206.545 50.3938 203.603 50.3909C202.517 50.3925 201.438 50.5508 200.398 50.861C200.57 49.7333 200.656 48.594 200.654 47.4532C200.654 41.22 198.178 35.2421 193.771 30.8346C189.363 26.427 183.385 23.9509 177.152 23.9509C175.7 23.9506 174.252 24.0865 172.825 24.3569C170.51 20.55 167.02 17.5995 162.881 15.9507C158.742 14.3018 154.178 14.0441 149.88 15.2164C145.581 16.3887 141.781 18.9275 139.052 22.4494C136.323 25.9714 134.814 30.2855 134.752 34.7406H134.41C131.887 34.6806 129.377 35.1258 127.029 36.0499C124.68 36.974 122.54 38.3584 120.735 40.1217C118.929 41.8849 117.494 43.9914 116.515 46.3173C115.535 48.6432 115.03 51.1415 115.03 53.6652C115.03 56.189 115.535 58.6873 116.515 61.0132C117.494 63.3391 118.929 65.4456 120.735 67.2088C122.54 68.9721 124.68 70.3565 127.029 71.2806C129.377 72.2047 131.887 72.6498 134.41 72.5899H203.902C206.792 72.5119 209.538 71.3078 211.554 69.2343C213.569 67.1609 214.695 64.3821 214.691 61.4904Z" fill="#F0F0F0"/>
<path d="M156.277 62.345V83.9778H173.914V62.345H188.282L165.09 42.7527L141.908 62.345H156.277Z" fill="#E0E0E0"/>
<path d="M223.547 115.513V86.4241H312.62V115.225" stroke="#E6E6E6" stroke-miterlimit="10"/>
<path d="M269.397 59.012V115.439" stroke="#E6E6E6" stroke-miterlimit="10"/>
<path d="M284.557 47.9338H254.261C253.558 47.9338 252.989 48.503 252.989 49.2051V67.227C252.989 67.9291 253.558 68.4983 254.261 68.4983H284.557C285.259 68.4983 285.828 67.9291 285.828 67.227V49.2051C285.828 48.503 285.259 47.9338 284.557 47.9338Z" fill="#F0F0F0"/>
<path d="M284.236 50.3483H254.57C254.322 50.3483 254.121 50.5492 254.121 50.797V67.2272C254.121 67.475 254.322 67.6758 254.57 67.6758H284.236C284.484 67.6758 284.685 67.475 284.685 67.2272V50.797C284.685 50.5492 284.484 50.3483 284.236 50.3483Z" fill="#E0E0E0"/>
<path d="M238.695 112.875H208.398C207.696 112.875 207.127 113.444 207.127 114.146V132.168C207.127 132.87 207.696 133.439 208.398 133.439H238.695C239.397 133.439 239.966 132.87 239.966 132.168V114.146C239.966 113.444 239.397 112.875 238.695 112.875Z" fill="#F0F0F0"/>
<path d="M238.374 115.289H208.707C208.46 115.289 208.259 115.49 208.259 115.738V132.168C208.259 132.416 208.46 132.617 208.707 132.617H238.374C238.622 132.617 238.822 132.416 238.822 132.168V115.738C238.822 115.49 238.622 115.289 238.374 115.289Z" fill="#E0E0E0"/>
<path d="M284.557 112.875H254.261C253.558 112.875 252.989 113.444 252.989 114.146V132.168C252.989 132.87 253.558 133.439 254.261 133.439H284.557C285.259 133.439 285.828 132.87 285.828 132.168V114.146C285.828 113.444 285.259 112.875 284.557 112.875Z" fill="#F0F0F0"/>
<path d="M284.236 115.289H254.57C254.322 115.289 254.121 115.49 254.121 115.738V132.168C254.121 132.416 254.322 132.617 254.57 132.617H284.236C284.484 132.617 284.685 132.416 284.685 132.168V115.738C284.685 115.49 284.484 115.289 284.236 115.289Z" fill="#E0E0E0"/>
<path d="M327.843 112.875H297.547C296.845 112.875 296.275 113.444 296.275 114.146V132.168C296.275 132.87 296.845 133.439 297.547 133.439H327.843C328.545 133.439 329.114 132.87 329.114 132.168V114.146C329.114 113.444 328.545 112.875 327.843 112.875Z" fill="#F0F0F0"/>
<path d="M327.524 115.289H297.858C297.61 115.289 297.409 115.49 297.409 115.738V132.168C297.409 132.416 297.61 132.617 297.858 132.617H327.524C327.772 132.617 327.973 132.416 327.973 132.168V115.738C327.973 115.49 327.772 115.289 327.524 115.289Z" fill="#E0E0E0"/>
<path d="M268.784 77.6116L260.581 85.8151C260.243 86.1531 260.243 86.7009 260.581 87.0389L268.784 95.2424C269.122 95.5803 269.67 95.5803 270.008 95.2424L278.211 87.0389C278.549 86.7009 278.549 86.1531 278.211 85.8151L270.008 77.6116C269.67 77.2737 269.122 77.2737 268.784 77.6116Z" fill="#E0E0E0"/>
<path opacity="0.8" d="M95.4816 72.2694H74.1052C73.5919 72.2694 73.1758 72.6855 73.1758 73.1988V85.2597C73.1758 85.773 73.5919 86.1891 74.1052 86.1891H95.4816C95.9948 86.1891 96.411 85.773 96.411 85.2597V73.1988C96.411 72.6855 95.9948 72.2694 95.4816 72.2694Z" fill="#E0E0E0"/>
<path d="M79.1693 102.213H62.237C61.7237 102.213 61.3076 102.629 61.3076 103.143V111.913C61.3076 112.427 61.7237 112.843 62.237 112.843H79.1693C79.6826 112.843 80.0987 112.427 80.0987 111.913V103.143C80.0987 102.629 79.6826 102.213 79.1693 102.213Z" fill="#E0E0E0"/>
<path d="M107.681 102.213H90.7487C90.2354 102.213 89.8193 102.629 89.8193 103.143V111.913C89.8193 112.427 90.2354 112.843 90.7487 112.843H107.681C108.194 112.843 108.61 112.427 108.61 111.913V103.143C108.61 102.629 108.194 102.213 107.681 102.213Z" fill="#E0E0E0"/>
<path d="M90.1506 124.712H82.1491C81.6358 124.712 81.2197 125.128 81.2197 125.641V132.863C81.2197 133.376 81.6358 133.792 82.1491 133.792H90.1506C90.6639 133.792 91.08 133.376 91.08 132.863V125.641C91.08 125.128 90.6639 124.712 90.1506 124.712Z" fill="#E0E0E0"/>
<path d="M102.671 124.712H94.6696C94.1563 124.712 93.7402 125.128 93.7402 125.641V132.863C93.7402 133.376 94.1563 133.792 94.6696 133.792H102.671C103.184 133.792 103.601 133.376 103.601 132.863V125.641C103.601 125.128 103.184 124.712 102.671 124.712Z" fill="#E0E0E0"/>
<path d="M115.202 124.712H107.201C106.688 124.712 106.271 125.128 106.271 125.641V132.863C106.271 133.376 106.688 133.792 107.201 133.792H115.202C115.716 133.792 116.132 133.376 116.132 132.863V125.641C116.132 125.128 115.716 124.712 115.202 124.712Z" fill="#E0E0E0"/>
<path d="M61.1672 124.712H53.1657C52.6524 124.712 52.2363 125.128 52.2363 125.641V132.863C52.2363 133.376 52.6524 133.792 53.1657 133.792H61.1672C61.6805 133.792 62.0966 133.376 62.0966 132.863V125.641C62.0966 125.128 61.6805 124.712 61.1672 124.712Z" fill="#E0E0E0"/>
<path d="M74.7561 124.712H66.7546C66.2413 124.712 65.8252 125.128 65.8252 125.641V132.863C65.8252 133.376 66.2413 133.792 66.7546 133.792H74.7561C75.2693 133.792 75.6855 133.376 75.6855 132.863V125.641C75.6855 125.128 75.2693 124.712 74.7561 124.712Z" fill="#E0E0E0"/>
<path d="M98.1406 102.213H99.2089V94.7355H85.3212V86.1892H84.2529V94.7355H70.3652V102.213H71.4335V95.8038H98.1406V102.213Z" fill="#E0E0E0"/>
<path d="M70.3662 119.306H56.4785V124.647H57.5468V120.374H70.3662V124.647H71.4345V112.896H70.3662V119.306Z" fill="#E0E0E0"/>
<path d="M99.209 120.374V112.896H98.1407V120.374H85.3213V124.647H86.3896V121.443H98.1407V124.647H99.209V121.443H110.96V124.647H112.028V120.374H99.209Z" fill="#E0E0E0"/>
<path d="M407.324 75.6131V83.3261L411.277 83.7001C411.807 86.2282 412.807 88.6343 414.225 90.7935L411.683 93.8594L417.11 99.2863L420.176 96.7438C422.333 98.1662 424.74 99.1667 427.269 99.6923L427.622 103.624H435.292L435.666 99.6709C438.195 99.1453 440.602 98.1448 442.759 96.7224L445.825 99.2649L451.252 93.8381L448.72 90.8041C450.138 88.645 451.138 86.2389 451.669 83.7107L455.621 83.3368V75.6665L451.669 75.2927C451.14 72.7672 450.14 70.3643 448.72 68.2099L451.263 65.144L445.836 59.7171L442.77 62.2489C440.611 60.8308 438.205 59.8307 435.676 59.3004L435.303 55.3478H427.622L427.248 59.3004C424.72 59.8307 422.313 60.8308 420.154 62.2489L417.088 59.7171L411.661 65.144L414.204 68.2099C412.784 70.3643 411.784 72.7672 411.255 75.2927L407.324 75.6131ZM431.478 69.0646C433.534 69.0646 435.544 69.6744 437.254 70.8171C438.964 71.9597 440.296 73.5837 441.082 75.4837C441.869 77.3836 442.074 79.4741 441.672 81.4907C441.27 83.5073 440.279 85.3594 438.824 86.8127C437.37 88.2659 435.516 89.2551 433.499 89.6549C431.482 90.0548 429.392 89.8474 427.493 89.0591C425.594 88.2707 423.971 86.9368 422.83 85.226C421.689 83.5153 421.082 81.5045 421.084 79.4483C421.087 76.6952 422.181 74.0557 424.128 72.109C426.075 70.1623 428.714 69.0674 431.467 69.0646H431.478Z" fill="#F5F5F5"/>
<path d="M412.27 131.613C414.251 131.196 416.136 130.409 417.825 129.294L420.229 131.292L424.502 127.019L422.515 124.615C423.625 122.924 424.408 121.04 424.822 119.06L427.92 118.761V112.747L424.822 112.458C424.409 110.478 423.627 108.593 422.515 106.903L424.502 104.5L420.229 100.226L417.825 102.213C416.135 101.102 414.25 100.319 412.27 99.9059L411.981 96.8079H405.967L405.679 99.9059C403.698 100.319 401.814 101.102 400.124 102.213L397.709 100.269L393.436 104.542L395.423 106.946C394.311 108.636 393.528 110.521 393.116 112.501L390.018 112.789V118.804L393.116 119.103C393.53 121.083 394.313 122.967 395.423 124.658L393.436 127.04L397.709 131.313L400.113 129.316C401.802 130.431 403.687 131.217 405.668 131.634L405.956 134.721H411.971L412.27 131.613ZM400.829 115.781C400.827 114.168 401.303 112.591 402.197 111.249C403.091 109.907 404.364 108.861 405.853 108.242C407.342 107.624 408.981 107.461 410.563 107.774C412.145 108.088 413.598 108.863 414.739 110.002C415.88 111.142 416.658 112.594 416.973 114.176C417.289 115.757 417.128 117.397 416.511 118.887C415.895 120.377 414.85 121.65 413.509 122.546C412.169 123.443 410.592 123.921 408.98 123.921C406.82 123.921 404.748 123.064 403.22 121.537C401.691 120.011 400.831 117.941 400.829 115.781Z" fill="#F5F5F5"/>
<path d="M398.852 99.062L400.871 100.729L404.45 97.1604L402.773 95.1414C403.709 93.7218 404.369 92.1378 404.717 90.473L407.313 90.2273V85.185L404.717 84.9393C404.369 83.2744 403.709 81.6904 402.773 80.2709L404.45 78.2518L400.914 74.6837L398.895 76.3503C397.478 75.4156 395.898 74.7561 394.237 74.406L393.991 71.8101H388.938L388.693 74.406C387.028 74.7538 385.444 75.4135 384.024 76.3503L382.005 74.6837L378.437 78.2518L380.104 80.2709C379.17 81.6911 378.514 83.2751 378.17 84.9393L375.563 85.185V90.2273L378.17 90.473C378.514 92.1372 379.17 93.7211 380.104 95.1414L378.394 97.2139L381.963 100.782L383.982 99.1154C385.399 100.053 386.984 100.709 388.65 101.049L388.896 103.656H393.949L394.194 101.049C395.86 100.691 397.441 100.016 398.852 99.062ZM384.58 87.7061C384.58 86.3539 384.981 85.032 385.732 83.9077C386.483 82.7833 387.551 81.907 388.8 81.3895C390.05 80.8721 391.424 80.7367 392.751 81.0005C394.077 81.2643 395.295 81.9155 396.251 82.8716C397.208 83.8278 397.859 85.046 398.122 86.3723C398.386 87.6985 398.251 89.0732 397.733 90.3225C397.216 91.5718 396.34 92.6396 395.215 93.3909C394.091 94.1422 392.769 94.5431 391.417 94.5431C389.604 94.5431 387.864 93.8228 386.582 92.5406C385.3 91.2584 384.58 89.5194 384.58 87.7061Z" fill="#F5F5F5"/>
<path d="M469.701 287.4H397.966V334.052H469.701V287.4Z" fill="#F5F5F5"/>
<path d="M467.062 296.15H400.583V331.724H467.062V296.15Z" fill="#E0E0E0"/>
<path d="M455.183 301.47H405.999V302.997H455.183V301.47Z" fill="#F5F5F5"/>
<path d="M429.597 306.149H405.999V307.677H429.597V306.149Z" fill="#F5F5F5"/>
<path d="M435.719 310.839H405.999V312.366H435.719V310.839Z" fill="#F5F5F5"/>
<path d="M416.468 315.528H405.999V317.056H416.468V315.528Z" fill="#F5F5F5"/>
<path d="M412.783 320.218H405.999V321.746H412.783V320.218Z" fill="#F5F5F5"/>
<path d="M102.423 287.136L51.3809 287.368L51.5237 318.85L102.566 318.618L102.423 287.136Z" fill="#EBEBEB"/>
<path d="M70.9639 310.935C70.7376 310.936 70.5169 310.865 70.3336 310.732L61.0289 303.927C60.8942 303.828 60.7845 303.7 60.7084 303.552C60.6324 303.403 60.5921 303.239 60.5909 303.072C60.5892 302.905 60.627 302.739 60.7012 302.589C60.7755 302.438 60.8841 302.308 61.0182 302.207L70.2695 295.316C70.4976 295.148 70.7833 295.077 71.0638 295.119C71.3443 295.161 71.5965 295.313 71.7651 295.541C71.9337 295.769 72.0048 296.055 71.9627 296.335C71.9206 296.616 71.7689 296.868 71.5408 297.036L63.4539 303.062L71.5942 309.001C71.7773 309.134 71.9137 309.321 71.9836 309.536C72.0536 309.751 72.0535 309.983 71.9834 310.198C71.9134 310.413 71.7769 310.6 71.5937 310.732C71.4105 310.865 71.19 310.936 70.9639 310.935Z" fill="#FAFAFA"/>
<path d="M83.0569 310.871C82.8892 310.872 82.7235 310.835 82.5732 310.76C82.4229 310.686 82.2921 310.578 82.1915 310.443C82.1079 310.331 82.0474 310.202 82.0134 310.066C81.9794 309.93 81.9727 309.788 81.9935 309.649C82.0144 309.51 82.0624 309.377 82.1349 309.256C82.2073 309.136 82.3028 309.031 82.4159 308.948L90.5028 302.923L82.3625 296.983C82.1344 296.814 81.9826 296.562 81.9405 296.282C81.8985 296.001 81.9695 295.716 82.1381 295.487C82.3067 295.259 82.559 295.108 82.8395 295.066C83.1199 295.023 83.4056 295.095 83.6337 295.263L92.9385 302.057C93.0746 302.157 93.1852 302.287 93.2613 302.438C93.3375 302.588 93.3769 302.754 93.3765 302.923C93.3765 303.089 93.3379 303.252 93.2637 303.4C93.1895 303.549 93.0818 303.678 92.9492 303.777L83.6978 310.668C83.5116 310.803 83.2868 310.874 83.0569 310.871Z" fill="#FAFAFA"/>
<path d="M74.5739 310.924C74.4536 310.923 74.3345 310.901 74.2214 310.86C73.9557 310.766 73.7381 310.57 73.6161 310.316C73.494 310.062 73.4773 309.77 73.5697 309.503L78.3663 295.787C78.4126 295.654 78.4846 295.532 78.5781 295.427C78.6716 295.322 78.7848 295.237 78.9113 295.176C79.0378 295.115 79.175 295.08 79.3152 295.072C79.4554 295.064 79.5958 295.083 79.7284 295.13C79.861 295.176 79.9831 295.248 80.0879 295.341C80.1927 295.435 80.278 295.548 80.339 295.675C80.4 295.801 80.4355 295.938 80.4434 296.079C80.4514 296.219 80.4317 296.359 80.3854 296.492L75.5888 310.208C75.5153 310.419 75.378 310.601 75.196 310.729C75.0141 310.857 74.7966 310.925 74.5739 310.924Z" fill="#FAFAFA"/>
<path d="M267.378 398C381.772 398 474.507 392.586 474.507 385.907C474.507 379.228 381.772 373.814 267.378 373.814C152.983 373.814 60.248 379.228 60.248 385.907C60.248 392.586 152.983 398 267.378 398Z" fill="#F5F5F5"/>
<path d="M357.521 385.907H365.372L376.055 326.895H368.203L357.521 385.907Z" fill="#263238"/>
<path opacity="0.2" d="M357.521 385.907H365.372L376.055 326.895H368.203L357.521 385.907Z" fill="white"/>
<path opacity="0.2" d="M357.521 385.907H363.236L373.919 326.895H368.203L357.521 385.907Z" fill="white"/>
<path d="M335.417 344.447H366.814C367.042 344.448 367.267 344.404 367.478 344.318C367.689 344.231 367.88 344.104 368.041 343.943C368.202 343.782 368.329 343.591 368.416 343.38C368.502 343.169 368.546 342.944 368.545 342.716C368.546 342.488 368.502 342.263 368.416 342.052C368.329 341.842 368.202 341.65 368.041 341.489C367.88 341.328 367.689 341.201 367.478 341.114C367.267 341.028 367.042 340.984 366.814 340.986H335.417C335.19 340.984 334.964 341.028 334.753 341.114C334.543 341.201 334.351 341.328 334.19 341.489C334.029 341.65 333.902 341.842 333.815 342.052C333.729 342.263 333.685 342.488 333.687 342.716C333.685 342.944 333.729 343.169 333.815 343.38C333.902 343.591 334.029 343.782 334.19 343.943C334.351 344.104 334.543 344.231 334.753 344.318C334.964 344.404 335.19 344.448 335.417 344.447Z" fill="#263238"/>
<path d="M331.924 364.21H363.332C363.792 364.207 364.232 364.022 364.556 363.696C364.88 363.37 365.062 362.929 365.062 362.469C365.059 362.011 364.876 361.572 364.552 361.248C364.228 360.924 363.79 360.741 363.332 360.738H331.924C331.466 360.741 331.027 360.924 330.703 361.248C330.379 361.572 330.196 362.011 330.193 362.469C330.193 362.929 330.375 363.37 330.7 363.696C331.024 364.022 331.464 364.207 331.924 364.21Z" fill="#263238"/>
<path d="M325.472 385.907H333.324L344.006 326.895H336.155L325.472 385.907Z" fill="#263238"/>
<path opacity="0.2" d="M325.472 385.907H333.324L344.006 326.895H336.155L325.472 385.907Z" fill="white"/>
<path opacity="0.2" d="M325.472 385.907H331.187L341.87 326.895H336.155L325.472 385.907Z" fill="white"/>
<path d="M398.49 385.907H390.638L379.955 326.895H387.807L398.49 385.907Z" fill="#263238"/>
<path opacity="0.4" d="M398.49 385.907H390.638L379.955 326.895H387.807L398.49 385.907Z" fill="white"/>
<path opacity="0.2" d="M396.353 385.907H390.638L379.955 326.895H385.67L396.353 385.907Z" fill="white"/>
<path d="M384.697 344.447H353.289C352.83 344.447 352.39 344.264 352.065 343.94C351.741 343.615 351.559 343.175 351.559 342.716C351.559 342.257 351.741 341.817 352.065 341.492C352.39 341.168 352.83 340.986 353.289 340.986H384.697C385.156 340.986 385.596 341.168 385.921 341.492C386.245 341.817 386.427 342.257 386.427 342.716C386.427 343.175 386.245 343.615 385.921 343.94C385.596 344.264 385.156 344.447 384.697 344.447Z" fill="#263238"/>
<path d="M388.18 364.21H356.783C356.555 364.21 356.329 364.165 356.119 364.077C355.908 363.99 355.717 363.861 355.556 363.699C355.395 363.537 355.268 363.345 355.181 363.134C355.095 362.923 355.051 362.697 355.053 362.469C355.053 362.01 355.235 361.569 355.56 361.245C355.884 360.92 356.324 360.738 356.783 360.738H388.18C388.639 360.738 389.079 360.92 389.404 361.245C389.729 361.569 389.911 362.01 389.911 362.469C389.912 362.697 389.869 362.923 389.782 363.134C389.696 363.345 389.569 363.537 389.408 363.699C389.247 363.861 389.056 363.99 388.845 364.077C388.634 364.165 388.408 364.21 388.18 364.21Z" fill="#263238"/>
<path opacity="0.2" d="M384.697 344.447H353.289C352.83 344.447 352.39 344.264 352.065 343.94C351.741 343.615 351.559 343.175 351.559 342.716C351.559 342.257 351.741 341.817 352.065 341.492C352.39 341.168 352.83 340.986 353.289 340.986H384.697C385.156 340.986 385.596 341.168 385.921 341.492C386.245 341.817 386.427 342.257 386.427 342.716C386.427 343.175 386.245 343.615 385.921 343.94C385.596 344.264 385.156 344.447 384.697 344.447Z" fill="white"/>
<path opacity="0.2" d="M388.18 364.21H356.783C356.555 364.21 356.329 364.165 356.119 364.077C355.908 363.99 355.717 363.861 355.556 363.699C355.395 363.537 355.268 363.345 355.181 363.134C355.095 362.923 355.051 362.697 355.053 362.469C355.053 362.01 355.235 361.569 355.56 361.245C355.884 360.92 356.324 360.738 356.783 360.738H388.18C388.639 360.738 389.079 360.92 389.404 361.245C389.729 361.569 389.911 362.01 389.911 362.469C389.912 362.697 389.869 362.923 389.782 363.134C389.696 363.345 389.569 363.537 389.408 363.699C389.247 363.861 389.056 363.99 388.845 364.077C388.634 364.165 388.408 364.21 388.18 364.21Z" fill="white"/>
<path d="M366.44 385.907H358.588L347.905 326.895H355.757L366.44 385.907Z" fill="#263238"/>
<path opacity="0.4" d="M366.44 385.907H358.588L347.905 326.895H355.757L366.44 385.907Z" fill="white"/>
<path opacity="0.2" d="M364.303 385.907H358.588L347.905 326.895H353.621L364.303 385.907Z" fill="white"/>
<path d="M390.861 324.075H334.146C333.444 324.075 332.875 324.644 332.875 325.346V328.433C332.875 329.135 333.444 329.704 334.146 329.704H390.861C391.564 329.704 392.133 329.135 392.133 328.433V325.346C392.133 324.644 391.564 324.075 390.861 324.075Z" fill="#263238"/>
<path opacity="0.2" d="M355.704 324.075H334.146C333.444 324.075 332.875 324.644 332.875 325.346V328.433C332.875 329.135 333.444 329.704 334.146 329.704H355.704C356.406 329.704 356.975 329.135 356.975 328.433V325.346C356.975 324.644 356.406 324.075 355.704 324.075Z" fill="white"/>
<path d="M207.928 338.486H136.192V385.138H207.928V338.486Z" fill="#44C6EA"/>
<path opacity="0.6" d="M207.928 338.486H136.192V385.138H207.928V338.486Z" fill="white"/>
<path d="M205.311 347.235H138.821V382.809H205.311V347.235Z" fill="#44C6EA"/>
<path d="M193.421 352.544H144.237V354.072H193.421V352.544Z" fill="white"/>
<path d="M167.836 357.234H144.237V358.762H167.836V357.234Z" fill="white"/>
<path d="M173.957 361.924H144.237V363.451H173.957V361.924Z" fill="white"/>
<path d="M154.706 366.603H144.237V368.131H154.706V366.603Z" fill="white"/>
<path d="M151.021 371.293H144.237V372.82H151.021V371.293Z" fill="white"/>
<path d="M296.575 385.907H238.183L248.064 308.275H286.693L296.575 385.907Z" fill="#44C6EA"/>
<path opacity="0.6" d="M296.575 385.907H238.183L244.945 332.792L248.075 308.275H286.683L291.298 344.447L296.575 385.907Z" fill="white"/>
<path opacity="0.1" d="M291.298 344.447L244.945 332.792L248.075 308.275H286.683L291.298 344.447Z" fill="black"/>
<path d="M405.048 116.849H129.709C128.784 116.849 127.867 117.031 127.012 117.386C126.158 117.74 125.381 118.26 124.727 118.915C124.073 119.57 123.555 120.347 123.202 121.202C122.849 122.058 122.668 122.974 122.669 123.9V310.294C122.669 312.161 123.411 313.952 124.731 315.272C126.051 316.592 127.842 317.334 129.709 317.334H405.048C406.916 317.334 408.706 316.592 410.027 315.272C411.347 313.952 412.088 312.161 412.088 310.294V123.921C412.093 122.994 411.914 122.075 411.562 121.217C411.21 120.359 410.692 119.579 410.038 118.922C409.384 118.265 408.606 117.744 407.75 117.388C406.894 117.032 405.976 116.849 405.048 116.849Z" fill="#44C6EA"/>
<path opacity="0.7" d="M405.048 116.849H129.709C128.784 116.849 127.867 117.031 127.012 117.386C126.158 117.74 125.381 118.26 124.727 118.915C124.073 119.57 123.555 120.347 123.202 121.202C122.849 122.058 122.668 122.974 122.669 123.9V310.294C122.669 312.161 123.411 313.952 124.731 315.272C126.051 316.592 127.842 317.334 129.709 317.334H405.048C406.916 317.334 408.706 316.592 410.027 315.272C411.347 313.952 412.088 312.161 412.088 310.294V123.921C412.093 122.994 411.914 122.075 411.562 121.217C411.21 120.359 410.692 119.579 410.038 118.922C409.384 118.265 408.606 117.744 407.75 117.388C406.894 117.032 405.976 116.849 405.048 116.849Z" fill="white"/>
<path d="M402.827 123.75H131.942V303.489H402.827V123.75Z" fill="#44C6EA"/>
<path d="M316.413 380.074H218.334C217.72 380.074 217.223 380.572 217.223 381.185V384.7C217.223 385.313 217.72 385.811 218.334 385.811H316.413C317.026 385.811 317.524 385.313 317.524 384.7V381.185C317.524 380.572 317.026 380.074 316.413 380.074Z" fill="#44C6EA"/>
<path opacity="0.7" d="M316.413 380.074H218.334C217.72 380.074 217.223 380.572 217.223 381.185V384.7C217.223 385.313 217.72 385.811 218.334 385.811H316.413C317.026 385.811 317.524 385.313 317.524 384.7V381.185C317.524 380.572 317.026 380.074 316.413 380.074Z" fill="white"/>
<path opacity="0.2" d="M402.827 123.921H131.942V150.714H402.827V123.921Z" fill="black"/>
<path opacity="0.4" d="M248.022 151.034H131.942V303.489H248.022V151.034Z" fill="white"/>
<path d="M361.132 189.92V192.59H358.461" stroke="white" stroke-miterlimit="10"/>
<path d="M352.821 192.59H265.328" stroke="white" stroke-miterlimit="10" stroke-dasharray="5.28 5.28"/>
<path d="M262.507 192.59H259.836V189.92" stroke="white" stroke-miterlimit="10"/>
<path d="M259.836 185.08V139.112" stroke="white" stroke-miterlimit="10" stroke-dasharray="4.53 4.53"/>
<path d="M259.836 136.698V134.027H262.507" stroke="white" stroke-miterlimit="10"/>
<path d="M268.147 134.027H355.64" stroke="white" stroke-miterlimit="10" stroke-dasharray="5.28 5.28"/>
<path d="M358.461 134.027H361.132V136.698" stroke="white" stroke-miterlimit="10"/>
<path d="M361.131 141.537V187.505" stroke="white" stroke-miterlimit="10" stroke-dasharray="4.53 4.53"/>
<path d="M362.83 132.328H359.443V135.715H362.83V132.328Z" fill="#44C6EA" stroke="white" stroke-miterlimit="10"/>
<path d="M362.83 190.902H359.443V194.289H362.83V190.902Z" fill="#44C6EA" stroke="white" stroke-miterlimit="10"/>
<path d="M261.525 132.328H258.139V135.715H261.525V132.328Z" fill="#44C6EA" stroke="white" stroke-miterlimit="10"/>
<path d="M261.525 190.902H258.139V194.289H261.525V190.902Z" fill="#44C6EA" stroke="white" stroke-miterlimit="10"/>
<path d="M312.182 132.328H308.796V135.715H312.182V132.328Z" fill="#44C6EA" stroke="white" stroke-miterlimit="10"/>
<path d="M312.182 190.902H308.796V194.289H312.182V190.902Z" fill="#44C6EA" stroke="white" stroke-miterlimit="10"/>
<path d="M362.83 161.61H359.443V164.997H362.83V161.61Z" fill="#44C6EA" stroke="white" stroke-miterlimit="10"/>
<path d="M261.525 161.61H258.139V164.997H261.525V161.61Z" fill="#44C6EA" stroke="white" stroke-miterlimit="10"/>
<path opacity="0.7" d="M351.933 153.694H327.138C326.023 153.694 325.119 154.598 325.119 155.713V162.347C325.119 163.462 326.023 164.366 327.138 164.366H351.933C353.048 164.366 353.952 163.462 353.952 162.347V155.713C353.952 154.598 353.048 153.694 351.933 153.694Z" fill="white"/>
<path opacity="0.7" d="M309.202 153.694H284.407C283.292 153.694 282.388 154.598 282.388 155.713V162.347C282.388 163.462 283.292 164.366 284.407 164.366H309.202C310.317 164.366 311.221 163.462 311.221 162.347V155.713C311.221 154.598 310.317 153.694 309.202 153.694Z" fill="white"/>
<path opacity="0.7" d="M254.197 283.587H229.402C228.287 283.587 227.383 284.491 227.383 285.606V292.24C227.383 293.355 228.287 294.259 229.402 294.259H254.197C255.312 294.259 256.216 293.355 256.216 292.24V285.606C256.216 284.491 255.312 283.587 254.197 283.587Z" fill="white"/>
<path d="M384.942 133.45H393.959" stroke="white" stroke-width="1.5" stroke-linecap="round" stroke-linejoin="round"/>
<path d="M384.942 137.723H393.959" stroke="white" stroke-width="1.5" stroke-linecap="round" stroke-linejoin="round"/>
<path d="M384.942 141.996H393.959" stroke="white" stroke-width="1.5" stroke-linecap="round" stroke-linejoin="round"/>
<path opacity="0.5" d="M241.163 174.665H150.306V265.522H241.163V174.665Z" fill="white"/>
<path d="M188.336 182.089V260.469" stroke="#44C6EA" stroke-miterlimit="10"/>
<path d="M227.522 260.469C217.126 260.469 207.157 256.34 199.806 248.989C192.456 241.639 188.326 231.669 188.326 221.274C188.326 210.881 192.455 200.915 199.803 193.566C207.152 186.217 217.118 182.089 227.511 182.089" stroke="#44C6EA" stroke-miterlimit="10"/>
<path d="M229.22 180.401H225.834V183.788H229.22V180.401Z" fill="white" stroke="#44C6EA" stroke-miterlimit="10"/>
<path d="M229.22 258.771H225.834V262.157H229.22V258.771Z" fill="white" stroke="#44C6EA" stroke-miterlimit="10"/>
<path d="M190.036 219.586H186.649V222.972H190.036V219.586Z" fill="white" stroke="#44C6EA" stroke-miterlimit="10"/>
<path d="M189.213 182.089C189.213 182.262 189.162 182.432 189.065 182.576C188.969 182.72 188.832 182.832 188.672 182.899C188.512 182.965 188.336 182.982 188.166 182.948C187.996 182.915 187.84 182.831 187.718 182.709C187.595 182.586 187.512 182.43 187.478 182.26C187.444 182.09 187.461 181.914 187.528 181.754C187.594 181.594 187.706 181.457 187.85 181.361C187.994 181.265 188.164 181.213 188.337 181.213C188.568 181.216 188.79 181.309 188.953 181.473C189.117 181.637 189.21 181.858 189.213 182.089Z" fill="white" stroke="#44C6EA" stroke-miterlimit="10"/>
<path d="M189.213 260.469C189.213 260.642 189.162 260.811 189.066 260.955C188.97 261.099 188.834 261.211 188.675 261.277C188.515 261.344 188.34 261.362 188.17 261.329C188 261.296 187.844 261.214 187.721 261.092C187.598 260.971 187.514 260.816 187.479 260.647C187.444 260.477 187.46 260.302 187.525 260.141C187.589 259.981 187.7 259.844 187.843 259.746C187.985 259.648 188.153 259.595 188.326 259.593C188.442 259.592 188.557 259.613 188.665 259.657C188.772 259.7 188.87 259.764 188.953 259.846C189.035 259.927 189.101 260.025 189.145 260.131C189.19 260.238 189.213 260.353 189.213 260.469Z" fill="white" stroke="#44C6EA" stroke-miterlimit="10"/>
<path opacity="0.7" d="M338.879 284.879H311.371C309.263 284.879 307.241 284.042 305.751 282.552C304.26 281.061 303.423 279.039 303.423 276.931C303.423 274.823 304.26 272.802 305.751 271.311C307.241 269.821 309.263 268.983 311.371 268.983H338.879C340.987 268.983 343.009 269.821 344.499 271.311C345.99 272.802 346.827 274.823 346.827 276.931C346.827 279.039 345.99 281.061 344.499 282.552C343.009 284.042 340.987 284.879 338.879 284.879Z" fill="white"/>
<path opacity="0.7" d="M363.045 217.097H278.063C277.601 217.097 277.158 216.913 276.831 216.587C276.505 216.26 276.321 215.817 276.321 215.356C276.33 214.9 276.517 214.467 276.843 214.149C277.169 213.831 277.607 213.654 278.063 213.657H363.034C363.262 213.656 363.488 213.699 363.699 213.786C363.911 213.872 364.103 213.999 364.265 214.16C364.426 214.321 364.555 214.512 364.642 214.723C364.73 214.934 364.775 215.159 364.775 215.388C364.767 215.842 364.581 216.275 364.258 216.595C363.934 216.914 363.499 217.094 363.045 217.097Z" fill="white"/>
<path opacity="0.7" d="M363.045 229.777H278.063C277.834 229.779 277.608 229.735 277.397 229.649C277.186 229.562 276.994 229.435 276.832 229.274C276.67 229.114 276.542 228.922 276.454 228.712C276.366 228.501 276.321 228.275 276.321 228.047C276.321 227.585 276.505 227.142 276.831 226.816C277.158 226.489 277.601 226.306 278.063 226.306H363.034C363.496 226.306 363.939 226.489 364.265 226.816C364.592 227.142 364.775 227.585 364.775 228.047C364.775 228.506 364.593 228.946 364.268 229.271C363.944 229.595 363.504 229.777 363.045 229.777Z" fill="white"/>
<path opacity="0.7" d="M363.044 242.501H310.11C309.65 242.501 309.209 242.319 308.883 241.994C308.557 241.67 308.372 241.23 308.369 240.77C308.369 240.308 308.553 239.865 308.879 239.539C309.206 239.212 309.649 239.029 310.11 239.029H363.033C363.495 239.029 363.938 239.212 364.265 239.539C364.591 239.865 364.775 240.308 364.775 240.77C364.772 241.228 364.589 241.667 364.265 241.991C363.941 242.315 363.502 242.498 363.044 242.501Z" fill="white"/>
<path opacity="0.4" d="M146.503 131.346H140.499V137.349H146.503V131.346Z" fill="black"/>
<path opacity="0.4" d="M156.63 131.346H153.703C152.854 131.346 152.165 132.034 152.165 132.884V135.811C152.165 136.661 152.854 137.349 153.703 137.349H156.63C157.48 137.349 158.169 136.661 158.169 135.811V132.884C158.169 132.034 157.48 131.346 156.63 131.346Z" fill="black"/>
<path opacity="0.4" d="M167.1 131.346H166.587C165.071 131.346 163.842 132.575 163.842 134.091V134.604C163.842 136.12 165.071 137.349 166.587 137.349H167.1C168.616 137.349 169.846 136.12 169.846 134.604V134.091C169.846 132.575 168.616 131.346 167.1 131.346Z" fill="black"/>
<path opacity="0.9" d="M158.894 279.356V277.017L157.698 276.91C157.527 276.15 157.223 275.427 156.8 274.773L157.569 273.844L155.914 272.188L154.984 272.957C154.33 272.535 153.607 272.231 152.848 272.06L152.741 270.864H150.401L150.284 272.06C149.524 272.232 148.801 272.535 148.147 272.957L147.218 272.188L145.562 273.844L146.331 274.773C145.9 275.423 145.595 276.148 145.434 276.91L144.227 277.017V279.356L145.434 279.474C145.596 280.236 145.9 280.961 146.331 281.61L145.562 282.551L147.218 284.196L148.147 283.427C148.797 283.857 149.522 284.162 150.284 284.324L150.401 285.531H152.741L152.848 284.324C153.61 284.162 154.335 283.858 154.984 283.427L155.914 284.196L157.569 282.551L156.8 281.61C157.227 280.959 157.531 280.235 157.698 279.474L158.894 279.356ZM151.534 281.354C150.9 281.354 150.28 281.166 149.753 280.814C149.226 280.462 148.815 279.961 148.573 279.376C148.33 278.79 148.267 278.146 148.39 277.524C148.514 276.902 148.819 276.331 149.267 275.883C149.716 275.435 150.287 275.13 150.908 275.006C151.53 274.882 152.174 274.946 152.76 275.188C153.346 275.431 153.846 275.842 154.198 276.369C154.551 276.896 154.738 277.515 154.738 278.149C154.738 278.999 154.401 279.814 153.8 280.415C153.199 281.016 152.384 281.354 151.534 281.354Z" fill="white"/>
<path opacity="0.6" d="M168.381 285.958V284.164L167.441 284.068C167.314 283.466 167.074 282.893 166.736 282.38L167.334 281.643L166.042 280.35L165.315 280.959C164.798 280.62 164.222 280.381 163.617 280.254L163.531 279.303H161.694L161.608 280.254C161.003 280.381 160.427 280.62 159.91 280.959L159.183 280.35L157.88 281.643L158.489 282.38C158.151 282.893 157.911 283.466 157.784 284.068L156.844 284.164V285.99L157.784 286.087C157.911 286.688 158.151 287.261 158.489 287.774L157.88 288.512L159.183 289.804L159.91 289.195C160.427 289.534 161.003 289.773 161.608 289.9L161.694 290.84H163.531L163.617 289.9C164.222 289.773 164.798 289.534 165.315 289.195L166.042 289.804L167.334 288.512L166.736 287.774C167.074 287.261 167.314 286.688 167.441 286.087L168.381 285.958ZM162.612 287.529C162.12 287.531 161.637 287.387 161.227 287.114C160.816 286.842 160.495 286.454 160.305 286C160.115 285.545 160.064 285.044 160.159 284.561C160.254 284.077 160.49 283.633 160.838 283.283C161.186 282.934 161.629 282.696 162.112 282.599C162.595 282.502 163.096 282.551 163.552 282.739C164.007 282.927 164.397 283.246 164.671 283.656C164.945 284.065 165.091 284.547 165.091 285.04C165.092 285.366 165.029 285.689 164.905 285.991C164.781 286.293 164.599 286.568 164.369 286.799C164.139 287.03 163.865 287.214 163.563 287.339C163.262 287.464 162.939 287.529 162.612 287.529Z" fill="white"/>
<path opacity="0.4" d="M158.894 291.161V289.623L158.103 289.548C157.997 289.042 157.798 288.56 157.515 288.127L158.028 287.518L156.96 286.45L156.34 286.952C155.907 286.67 155.425 286.47 154.92 286.364L154.845 285.574H153.285L153.21 286.364C152.704 286.47 152.223 286.67 151.789 286.952L151.17 286.45L150.102 287.518L150.614 288.127C150.332 288.56 150.133 289.042 150.027 289.548L149.226 289.623V291.161L150.027 291.236C150.131 291.746 150.33 292.231 150.614 292.667L150.102 293.276L151.17 294.344L151.789 293.832C152.22 294.122 152.702 294.325 153.21 294.43L153.285 295.22H154.823L154.898 294.43C155.406 294.325 155.889 294.122 156.319 293.832L156.939 294.344L158.007 293.276L157.494 292.667C157.778 292.231 157.978 291.746 158.082 291.236L158.894 291.161ZM154.054 292.475C153.645 292.464 153.247 292.333 152.912 292.098C152.576 291.863 152.318 291.534 152.168 291.153C152.019 290.771 151.985 290.354 152.071 289.954C152.158 289.553 152.36 289.187 152.653 288.901C152.947 288.615 153.318 288.422 153.72 288.346C154.123 288.269 154.539 288.314 154.917 288.473C155.294 288.632 155.616 288.899 155.843 289.24C156.07 289.582 156.191 289.982 156.191 290.392C156.191 290.67 156.135 290.945 156.027 291.202C155.919 291.458 155.761 291.69 155.562 291.884C155.363 292.078 155.127 292.231 154.868 292.332C154.609 292.433 154.332 292.482 154.054 292.475Z" fill="white"/>
<path d="M360.512 133.418L365.041 145.532L372.615 137.948L360.512 133.418Z" fill="#44C6EA"/>
<path d="M367.806 139.02L366.114 140.712L369.869 144.466L371.561 142.774L367.806 139.02Z" fill="#44C6EA"/>
<path opacity="0.4" d="M372.615 137.948L360.512 133.418L365.041 145.532L367.99 142.584L369.859 144.464L371.547 142.776L369.678 140.896L372.615 137.948Z" fill="white"/>
<path d="M174.93 176.716L186.328 180.989L180.356 175.017C180.135 175.144 179.879 175.195 179.626 175.162C179.373 175.13 179.138 175.015 178.957 174.836C178.736 174.615 178.612 174.315 178.612 174.002C178.612 173.69 178.736 173.39 178.957 173.169C179.178 172.948 179.478 172.824 179.79 172.824C180.103 172.824 180.403 172.948 180.624 173.169C180.803 173.35 180.918 173.585 180.95 173.838C180.983 174.091 180.932 174.347 180.805 174.568L186.777 180.54L182.504 169.142L178.722 169.975L178.583 168.618L177.867 167.902L173.68 172.09L174.395 172.806L175.763 172.945L174.93 176.716Z" fill="#263238"/>
<path opacity="0.2" d="M174.93 176.716L186.328 180.989L180.356 175.017C180.135 175.144 179.879 175.195 179.626 175.162C179.373 175.13 179.138 175.015 178.957 174.836C178.736 174.615 178.612 174.315 178.612 174.002C178.612 173.69 178.736 173.39 178.957 173.169C179.178 172.948 179.478 172.824 179.79 172.824C180.103 172.824 180.403 172.948 180.624 173.169C180.803 173.35 180.918 173.585 180.95 173.838C180.983 174.091 180.932 174.347 180.805 174.568L186.777 180.54L182.504 169.142L178.722 169.975L178.583 168.618L177.867 167.902L173.68 172.09L174.395 172.806L175.763 172.945L174.93 176.716Z" fill="white"/>
<g opacity="0.1">
<path d="M171.553 123.75L131.407 273.758V123.75H171.553Z" fill="white"/>
<path d="M216.86 123.75L168.755 303.489H135.617L183.711 123.75H216.86Z" fill="white"/>
<path d="M265.039 123.75L216.934 303.489H201.946L250.051 123.75H265.039Z" fill="white"/>
<path d="M309.405 123.75L261.3 303.489H255.938L304.042 123.75H309.405Z" fill="white"/>
</g>
<path d="M472.382 163.448C476.174 167.817 495.467 204.982 491.739 213.657C488.011 222.331 457.095 212.332 457.095 212.332L458.943 200.079C458.943 200.079 470.95 200.506 472.104 199.363C473.258 198.22 455.855 180.85 455.855 180.85L472.382 163.448Z" fill="#263238"/>
<g opacity="0.2">
<path d="M491.717 213.657C491.258 214.661 490.46 215.471 489.463 215.943L488.843 216.221H488.758C488.566 216.301 488.37 216.369 488.17 216.424C487.302 216.702 486.407 216.889 485.499 216.979L484.719 217.054C484.335 217.054 483.95 217.107 483.555 217.118H482.487C472.124 217.118 457.051 212.257 457.051 212.257L458.899 200.004C458.899 200.004 470.906 200.432 472.06 199.288C472.338 199.011 471.515 197.771 470.116 196.084C466.719 191.907 459.914 184.952 457.104 182.11L455.833 180.828L472.381 163.448C476.173 167.774 495.466 204.94 491.717 213.657Z" fill="white"/>
</g>
<path opacity="0.2" d="M489.485 215.911L488.865 216.189H488.78C488.589 216.269 488.392 216.337 488.192 216.392C487.324 216.67 486.429 216.856 485.522 216.947L484.742 217.022C484.357 217.022 483.973 217.075 483.577 217.086H482.509C472.147 217.086 457.073 212.225 457.073 212.225L458.921 199.972C458.921 199.972 472.446 201.115 473.6 199.972C473.813 199.523 472.318 198.006 470.106 196.073C466.709 191.896 459.904 184.941 457.095 182.1L464.914 173.746L470.865 173.105C470.865 173.105 484.037 194.428 489.485 215.911Z" fill="black"/>
<path d="M433.399 162.187C431.263 163.736 430.194 165.937 431.049 167.101L487.497 244.926C488.341 246.09 490.766 245.77 492.903 244.22C495.039 242.671 496.107 240.46 495.253 239.306L438.805 161.471C437.961 160.317 435.546 160.627 433.399 162.187Z" fill="#263238"/>
<path opacity="0.7" d="M438.806 161.471L495.254 239.296C496.098 240.449 495.04 242.65 492.904 244.21C490.767 245.769 488.342 246.069 487.509 244.915L431.061 167.08C430.845 166.674 430.75 166.215 430.786 165.757C430.822 165.299 430.988 164.861 431.264 164.494C431.552 163.98 431.912 163.509 432.332 163.095C432.659 162.757 433.017 162.449 433.4 162.176C435.548 160.638 437.962 160.317 438.806 161.471Z" fill="white"/>
<path opacity="0.3" d="M495.254 239.296C496.098 240.449 495.04 242.65 492.904 244.21C490.767 245.769 488.342 246.068 487.509 244.915C487.039 244.274 488.203 243.302 488.887 241.902L431.264 164.516C431.552 164.001 431.912 163.53 432.332 163.116L488.791 240.951C489.122 240.614 489.479 240.304 489.859 240.022C491.996 238.462 494.41 238.142 495.254 239.296Z" fill="black"/>
<path d="M426.413 160.029C424.607 161.952 423.988 164.302 425.035 165.296L495.221 231.006C496.289 231.989 498.586 231.219 500.391 229.286C502.197 227.352 502.816 225.013 501.77 224.009L431.583 158.298C430.536 157.326 428.218 158.106 426.413 160.029Z" fill="#44C6EA"/>
<path opacity="0.7" d="M431.584 158.309L501.77 224.019C502.838 224.991 502.197 227.352 500.392 229.286C498.587 231.22 496.269 231.978 495.222 231.006L425.035 165.296C424.749 164.935 424.57 164.502 424.519 164.045C424.468 163.587 424.547 163.125 424.747 162.71C424.939 162.15 425.204 161.619 425.537 161.129C425.802 160.751 426.094 160.394 426.413 160.061C428.219 158.106 430.537 157.326 431.584 158.309Z" fill="white"/>
<path opacity="0.3" d="M501.769 224.019C502.838 224.991 502.197 227.352 500.391 229.286C498.586 231.219 496.268 231.978 495.221 231.006C494.644 230.461 495.605 229.296 496.011 227.801L424.746 162.732C424.938 162.172 425.204 161.64 425.537 161.151L495.734 226.871C495.992 226.492 496.281 226.134 496.599 225.803C498.404 223.805 500.722 223.036 501.769 224.019Z" fill="black"/>
<path d="M443.281 369.733L437.939 369.819C432.502 344.276 428.656 312.665 426.263 288.821C425.889 285.082 425.547 281.546 425.195 278.245C425.056 276.675 424.917 275.169 424.789 273.716C424.148 266.548 423.72 260.896 423.443 257.35C423.25 254.786 423.154 253.376 423.154 253.376H442.576L442.394 258.3L441.753 274.549L441.689 276.408L441.283 287.144L440.61 305.422C447.244 331.168 443.281 369.733 443.281 369.733Z" fill="#EBB376"/>
<path d="M486.654 368.366L481.387 369.359C470.843 343.005 460.94 309.258 454.499 285.681C453.505 282.027 452.586 278.609 451.764 275.51C451.764 275.35 451.689 275.201 451.646 275.051C450.023 268.898 448.773 263.994 447.993 260.886L447.063 257.115L466.079 253.824L467.147 261.836L468.739 273.588L469.049 275.895L470.117 283.918L473.012 305.433C483.994 329.683 486.654 368.366 486.654 368.366Z" fill="#EBB376"/>
<path opacity="0.2" d="M468.793 273.609L451.764 275.51C451.764 275.35 451.689 275.201 451.647 275.051C450.023 268.898 448.773 263.994 447.993 260.886L467.222 261.836L468.793 273.609Z" fill="black"/>
<path opacity="0.2" d="M442.351 258.3L441.753 274.549L441.689 276.408L425.237 278.235C425.098 276.664 424.96 275.158 424.831 273.705C424.19 266.537 423.763 260.886 423.485 257.339L442.351 258.3Z" fill="black"/>
<path d="M427.481 387.488C428.477 386.68 429.609 386.057 430.825 385.651C430.825 385.651 434.468 382.04 436.231 371.165L440.995 369.915C441.805 369.722 442.655 369.781 443.43 370.084C444.205 370.388 444.869 370.922 445.332 371.613C445.464 371.807 445.565 372.019 445.631 372.244C445.878 373.41 446.049 374.591 446.144 375.78C446.411 379.756 446.436 383.744 446.219 387.723H445.354L445.012 380.245C444.884 377.692 442.929 380.683 442.373 383.45C441.818 386.217 440.632 389.101 435.055 389.24C428.539 389.336 425.836 389.08 427.481 387.488Z" fill="#263238"/>
<path d="M445.504 371.763C445.814 369.22 445.91 364.798 445.91 364.798L435.312 365.973C435.312 365.973 436.594 371.004 435.537 374.786C440.878 373.323 445.504 371.763 445.504 371.763Z" fill="#263238"/>
<path d="M470.597 387.488C471.593 386.684 472.726 386.065 473.941 385.661C473.941 385.661 477.584 382.051 479.336 371.175L484.111 369.926C484.921 369.732 485.771 369.792 486.546 370.095C487.321 370.399 487.985 370.932 488.448 371.624C488.58 371.818 488.681 372.03 488.747 372.254C488.994 373.421 489.165 374.602 489.26 375.79C489.525 379.767 489.546 383.755 489.324 387.734H488.512L488.171 380.256C488.042 377.703 486.087 380.694 485.532 383.461C484.976 386.228 483.791 389.112 478.203 389.251C471.655 389.336 468.952 389.08 470.597 387.488Z" fill="#263238"/>
<path d="M488.609 371.763C488.93 369.22 489.026 364.798 489.026 364.798L478.429 365.973C478.429 365.973 479.711 371.004 478.653 374.786C483.994 373.323 488.609 371.763 488.609 371.763Z" fill="#263238"/>
<path d="M470.628 268.364L450.47 270.938L449.69 271.034L445.545 255.843L444.477 272.124L422.876 270.992C413.262 214.511 429.703 201.169 429.703 201.169L459.006 207.066C472.274 229.628 469.122 255.843 469.122 255.843L470.628 268.364Z" fill="#44C6EA"/>
<path d="M442.875 130.801C442.875 133.023 441.892 134.817 440.739 134.817C439.585 134.817 438.538 133.023 438.538 130.801C438.538 128.579 439.521 126.784 440.739 126.784C441.957 126.784 442.875 128.579 442.875 130.801Z" stroke="#263238" stroke-width="0.5" stroke-linecap="round" stroke-linejoin="round"/>
<path d="M457.351 144.218C457.273 144.292 457.187 144.356 457.095 144.411C455.876 145.34 454.486 146.019 453.004 146.408C448.677 147.413 445.718 146.814 443.784 144.859C441.081 141.922 440.408 136.719 440.793 130.438C440.86 127.938 441.322 125.465 442.16 123.109C442.16 123.109 442.16 123.013 442.16 122.992C442.16 122.97 442.225 122.81 442.267 122.724C442.797 121.396 443.651 120.221 444.753 119.309C445.854 118.396 447.166 117.774 448.57 117.501C449.787 117.228 451.03 117.089 452.277 117.084C464.53 116.988 466.731 137.264 457.351 144.218Z" fill="#EBB376"/>
<path opacity="0.2" d="M457.095 144.443C455.866 145.318 454.475 145.939 453.003 146.27C448.677 147.274 445.718 146.537 443.784 144.55C446.374 145.19 449.101 144.965 451.551 143.909C452.455 143.575 453.424 143.45 454.384 143.542C455.344 143.634 456.271 143.942 457.095 144.443Z" fill="black"/>
<path d="M458.333 155.499C459.091 158.982 454.572 160.403 454.572 160.403C447.191 157.198 445.823 153.32 445.823 153.32C451.987 150.115 450.203 141.024 450.203 141.024L451.453 141.644L460.245 143.364C460.245 143.364 457.809 148.043 457.489 149.111C455.822 154.72 458.333 155.499 458.333 155.499Z" fill="#EBB376"/>
<path d="M442.148 123.056C442.148 123.056 441.475 131.602 449.626 135.33C449.626 135.33 453.12 144.251 458.258 144.368C465.277 144.539 471.451 134.572 469.026 124.412C465.854 111.23 445.887 110.162 442.148 123.056Z" fill="#263238"/>
<path d="M445.482 132.862C445.482 131.527 446.551 129.273 448.687 129.583C450.824 129.893 452.042 135.213 446.743 136.398C445.942 136.569 445.482 135.672 445.482 132.862Z" fill="#EBB376"/>
<path d="M457.094 113.933C457.094 113.933 448.911 111.86 444.381 115.161C439.093 119.007 437.085 122.981 443.313 129.156C443.313 129.156 457.062 124.701 461.634 125.641C464.307 126.18 466.93 126.941 469.475 127.916C470.469 118.836 461.666 112.074 457.094 113.933Z" fill="#263238"/>
<path d="M445.483 130.801C445.483 130.801 447.619 140.693 444.265 149.132C444.265 149.132 463.707 155.873 470.47 152.209C477.232 148.545 471.036 136.249 470.747 129.156C470.459 122.062 467.382 111.582 457.095 113.933C446.807 116.283 445.483 130.801 445.483 130.801Z" fill="#263238"/>
<path d="M438.485 130.17H446.7" stroke="#263238" stroke-width="0.5" stroke-linecap="round" stroke-linejoin="round"/>
<path opacity="0.2" d="M450.472 270.938L449.692 271.034L445.547 255.843C445.547 255.843 454.435 240.663 451.657 232.758C452.053 233.313 461.625 247.511 450.472 270.938Z" fill="black"/>
<path d="M433.827 154.73C433.827 154.73 443.601 151.248 458.333 155.499C473.065 159.751 473.62 166.022 473.62 166.022C473.62 166.022 464.283 187.185 462.809 211.146L424.415 209.715C424.415 209.715 419.832 175.893 433.827 154.73Z" fill="#263238"/>
<path opacity="0.2" d="M473.621 166.022C473.621 166.022 464.285 187.185 462.81 211.146L424.416 209.715C423.957 205.814 423.722 201.891 423.711 197.964C423.635 192.215 423.992 186.47 424.779 180.775C426.061 171.908 428.7 162.443 433.828 154.688C433.828 154.688 443.603 151.205 458.334 155.457C473.066 159.708 473.621 166.022 473.621 166.022Z" fill="white"/>
<path opacity="0.2" d="M433.292 182.26C433.292 182.26 431.701 192.003 423.678 198.006C423.602 192.258 423.959 186.512 424.746 180.818L433.292 182.26Z" fill="black"/>
<path d="M390.872 154.057L386.032 146.878C386.032 146.878 385.295 143.759 384.355 143.054C383.415 142.349 374.121 138.385 372.999 138.407C371.877 138.428 371.931 145.65 372.999 146.878C374.067 148.107 379.986 150.735 381.545 151.002C383.105 151.269 382.336 151.002 382.336 151.002L386.609 159.548L390.872 154.057Z" fill="#EBB376"/>
<path d="M433.827 154.73C423.46 159.072 413.457 164.238 403.915 170.178L388.286 148.812C388.286 148.812 384.077 150.115 382.518 157.444C382.518 157.444 390.54 188.007 400.967 191.041C411.393 194.075 433.314 182.207 433.314 182.207C433.314 182.207 439.66 166.332 433.827 154.73Z" fill="#263238"/>
<path opacity="0.2" d="M433.827 154.73C423.46 159.072 413.457 164.238 403.915 170.178L388.286 148.812C388.286 148.812 384.077 150.115 382.518 157.444C382.518 157.444 390.54 188.007 400.967 191.041C411.393 194.075 433.314 182.207 433.314 182.207C433.314 182.207 439.66 166.332 433.827 154.73Z" fill="white"/>
<path d="M443.708 153.384C443.708 153.384 447.116 177.784 457.916 178.767C468.717 179.749 473.556 161.674 471.729 159.538C469.902 157.401 455.983 153.224 443.708 153.384Z" fill="#263238"/>
<path opacity="0.3" d="M443.708 153.384C443.708 153.384 447.116 177.784 457.916 178.767C468.717 179.749 473.556 161.674 471.729 159.538C469.902 157.401 455.983 153.224 443.708 153.384Z" fill="white"/>
<path d="M59.4482 377.82H67.3642L68.0159 359.488H60.0999L59.4482 377.82Z" fill="#B97964"/>
<path d="M68.4534 376.901H58.8388C58.6805 376.898 58.5262 376.951 58.4031 377.051C58.28 377.151 58.1959 377.291 58.1658 377.446L56.6061 384.486C56.5732 384.636 56.5703 384.791 56.5977 384.943C56.625 385.094 56.6821 385.238 56.7655 385.367C56.8489 385.496 56.9571 385.608 57.0837 385.695C57.2104 385.782 57.3531 385.843 57.5035 385.875H57.7599C60.8686 385.821 63.1013 385.629 67.0326 385.629C69.4469 385.629 76.6471 385.885 80.0229 385.885C83.3987 385.885 83.7726 382.606 82.4159 382.307C76.316 380.971 71.733 379.102 69.7781 377.382C69.4132 377.06 68.9399 376.888 68.4534 376.901Z" fill="#263238"/>
<path d="M68.9983 378.002C68.962 377.991 68.9295 377.971 68.9048 377.942C68.8801 377.914 68.8643 377.879 68.8594 377.841C68.8527 377.806 68.8574 377.769 68.8727 377.737C68.8881 377.704 68.9133 377.677 68.9449 377.66C69.2333 377.478 71.7866 375.908 72.6625 376.356C72.7615 376.403 72.8446 376.477 72.9016 376.57C72.9586 376.663 72.9869 376.771 72.983 376.88C73.0122 377.067 72.991 377.259 72.9215 377.436C72.852 377.612 72.7369 377.767 72.5878 377.884C72.1455 378.193 71.6084 378.337 71.0708 378.29C70.3716 378.268 69.6769 378.172 68.9983 378.002ZM69.5431 377.734C70.4668 378.047 71.4749 377.998 72.3634 377.596C72.4559 377.512 72.5266 377.407 72.5694 377.289C72.6122 377.172 72.6259 377.046 72.6091 376.923C72.6091 376.773 72.545 376.698 72.4916 376.698C72.4157 376.659 72.3311 376.641 72.2459 376.645C71.2842 376.834 70.367 377.204 69.5431 377.734Z" fill="#44C6EA"/>
<path d="M68.9451 378.034C68.9172 378.015 68.8947 377.99 68.8797 377.96C68.8647 377.93 68.8578 377.896 68.8597 377.863C68.8597 377.756 69.0627 375.481 69.928 374.733C70.034 374.637 70.16 374.567 70.2968 374.526C70.4335 374.486 70.5775 374.476 70.7185 374.498C70.8605 374.499 70.9979 374.548 71.1084 374.638C71.219 374.727 71.2961 374.851 71.3274 374.989C71.4877 375.822 69.9066 377.564 69.084 378.012H68.9986L68.9451 378.034ZM70.2164 374.968C69.6621 375.68 69.3379 376.545 69.287 377.446C70.0989 376.827 71.1031 375.513 71.0069 375C71.0069 375 71.0069 374.808 70.7292 374.808H70.6437C70.4863 374.806 70.3338 374.863 70.2164 374.968Z" fill="#44C6EA"/>
<path opacity="0.2" d="M60.0997 359.499H68.0156L67.6738 368.953H59.7578L60.0997 359.499Z" fill="black"/>
<path d="M100.182 378.408L108.354 379.273L109.882 361.668L101.72 360.802L100.182 378.408Z" fill="#B97964"/>
<path d="M109.208 376.645H99.6572C99.4999 376.646 99.3477 376.701 99.2254 376.8C99.1031 376.899 99.0181 377.036 98.9842 377.19L97.4245 384.24C97.3862 384.388 97.3777 384.543 97.3995 384.694C97.4213 384.845 97.4729 384.991 97.5515 385.122C97.63 385.253 97.7338 385.368 97.8569 385.458C97.98 385.549 98.1199 385.614 98.2685 385.65H98.5248C101.634 385.597 103.866 385.405 107.808 385.405C110.212 385.405 117.423 385.65 120.788 385.65C124.153 385.65 124.538 382.371 123.181 382.072C117.081 380.747 112.498 378.867 110.543 377.147C110.176 376.819 109.7 376.64 109.208 376.645Z" fill="#263238"/>
<path d="M109.754 377.745C109.717 377.735 109.685 377.715 109.66 377.686C109.635 377.658 109.62 377.623 109.615 377.585C109.607 377.548 109.612 377.51 109.63 377.477C109.648 377.444 109.676 377.418 109.711 377.404C109.989 377.222 112.542 375.652 113.418 376.111C113.517 376.154 113.6 376.226 113.658 376.318C113.715 376.409 113.743 376.516 113.738 376.624C113.764 376.811 113.743 377.003 113.676 377.18C113.608 377.357 113.498 377.515 113.354 377.639C112.904 377.938 112.365 378.078 111.826 378.034C111.127 378.012 110.432 377.915 109.754 377.745ZM110.299 377.489C111.224 377.799 112.232 377.745 113.119 377.339C113.212 377.256 113.283 377.151 113.326 377.034C113.369 376.916 113.382 376.79 113.365 376.666C113.365 376.517 113.3 376.453 113.247 376.453C113.176 376.41 113.094 376.391 113.012 376.399C112.059 376.586 111.152 376.956 110.341 377.489H110.299Z" fill="#44C6EA"/>
<path d="M109.71 377.788C109.681 377.77 109.657 377.745 109.64 377.715C109.624 377.685 109.615 377.651 109.614 377.617C109.614 377.5 109.817 375.235 110.736 374.487C110.845 374.395 110.971 374.327 111.106 374.284C111.242 374.242 111.385 374.228 111.526 374.241C111.669 374.241 111.807 374.289 111.918 374.379C112.029 374.468 112.106 374.593 112.135 374.733C112.296 375.577 110.715 377.318 109.892 377.756H109.807L109.71 377.788ZM110.971 374.711C110.417 375.42 110.093 376.281 110.042 377.179C110.853 376.57 111.858 375.245 111.762 374.733C111.762 374.733 111.762 374.54 111.484 374.54H111.409C111.248 374.545 111.093 374.605 110.971 374.711Z" fill="#44C6EA"/>
<path opacity="0.2" d="M101.72 360.802L109.882 361.668L109.081 370.748L100.919 369.883L101.72 360.802Z" fill="black"/>
<path d="M63.3359 198.754H105.352C109.336 220.558 121.835 297.699 112.83 366.475L98.6107 364.712C98.6107 364.712 99.9247 273.47 87.383 239.723C85.9408 257.777 84.1782 276.985 82.736 287.208C79.0824 312.366 71.2626 367.329 71.2626 367.329H56.8301C56.8301 367.329 59.7892 314.706 61.1566 289.986C62.6522 263.118 63.3359 204.266 63.3359 198.754Z" fill="#263238"/>
<path d="M114.496 369.744L96.9014 367.127L97.4462 362.255L115.746 364.659L114.496 369.744Z" fill="#44C6EA"/>
<path d="M73.0468 367.426H55.9756V362.33L73.6877 361.999L73.0468 367.426Z" fill="#44C6EA"/>
<path opacity="0.2" d="M87.4268 239.691C89.4884 245.605 91.057 251.679 92.1165 257.852C93.2916 241.827 88.5912 224.735 88.5912 224.735L87.4268 239.691Z" fill="black"/>
<path d="M62.1724 206.061L61.2109 211.136C61.2109 211.136 90.5994 214.939 108.878 214.832L108.237 211.349L62.1724 206.061Z" fill="#44C6EA"/>
<path d="M121.814 162.123C121.814 162.123 131.974 194.171 138.907 196.308C145.84 198.444 163.478 171.962 163.478 171.962C163.478 171.962 179.32 171.812 180.025 170.733C180.73 169.654 175.912 158.491 174.759 158.48C173.605 158.469 159.803 163.661 159.279 164.537C158.756 165.413 142.913 180.561 142.187 180.113C141.46 179.664 135.435 160.616 135.435 160.616L121.814 162.123Z" fill="#B97964"/>
<path d="M165.571 170.231C165.697 170.205 165.822 170.173 165.944 170.135L165.763 170.017C165.705 170.093 165.641 170.165 165.571 170.231Z" fill="#B97964"/>
<path d="M116.046 158.426L117.285 160.702L123.065 171.385L124.272 173.596L140.499 167.956C140.499 167.956 133.747 142.765 131.408 140.18L116.046 158.426Z" fill="#44C6EA"/>
<path opacity="0.4" d="M116.046 158.426L117.285 160.702L123.065 171.385L124.272 173.596L140.499 167.956C140.499 167.956 133.747 142.765 131.408 140.18L116.046 158.426Z" fill="white"/>
<path opacity="0.2" d="M117.285 160.702L123.065 171.385C126.643 164.366 125.607 154.752 125.607 154.752L117.285 160.702Z" fill="black"/>
<path d="M131.407 140.191C128.35 136.66 124.606 133.789 120.404 131.75C116.202 129.712 111.63 128.549 106.965 128.333C91.0684 127.585 86.0689 129.166 80.2574 134.358C71.7645 141.943 61.1992 207.247 61.1992 207.247C76.6992 211.562 92.8009 213.313 108.866 212.428C108.866 212.428 109.058 194.267 114.795 182.078C121.256 168.5 126.805 154.507 131.407 140.191Z" fill="#44C6EA"/>
<path opacity="0.4" d="M61.1992 207.247C76.6992 211.563 92.8004 213.317 108.866 212.439C108.866 212.439 108.866 210.196 109.176 206.766C109.304 205.143 109.496 203.241 109.763 201.19C110.03 199.139 110.415 196.799 110.832 194.47C111.088 193.22 111.387 191.96 111.708 190.71C112.453 187.743 113.468 184.85 114.742 182.068C115.447 180.572 116.13 179.087 116.793 177.634C117.936 175.092 119.025 172.624 119.998 170.263C122.134 165.296 123.95 160.755 125.467 156.781C126.535 153.929 127.497 151.376 128.277 149.186C129.142 146.739 129.826 144.731 130.328 143.235C130.98 141.259 131.3 140.18 131.3 140.18C130.769 139.516 130.198 138.884 129.591 138.289C123.629 132.413 115.746 128.885 107.392 128.354H106.858C94.7433 127.788 88.9639 128.568 84.3276 131.271C82.8326 132.165 81.433 133.211 80.1506 134.39C78.9446 135.697 77.9952 137.219 77.3517 138.877C75.3772 143.468 73.7558 148.204 72.5017 153.042L71.7966 155.638C70.7283 159.602 69.7241 163.821 68.7627 168.094C68.4849 169.312 68.2178 170.53 67.9508 171.737C67.5555 173.596 67.1602 175.444 66.7863 177.271C65.8249 181.875 64.9596 186.341 64.2011 190.357C63.1328 196.126 62.2675 200.955 61.7547 203.957C61.4022 206.072 61.1992 207.247 61.1992 207.247ZM107.883 128.942C108.955 128.969 110.025 129.051 111.088 129.188C115.361 129.764 121.931 133.194 121.771 134.817C121.611 136.441 119.111 140.586 112.723 139.582C110.497 139.171 108.384 138.29 106.527 136.997C103.001 134.668 100.437 131.516 100.181 130.491C99.8604 129.262 104.005 128.846 107.894 128.963L107.883 128.942Z" fill="white"/>
<path d="M94.1878 150.714C94.1878 150.714 85.7697 171.086 84.0391 188.018L106.804 190.924C106.804 190.924 117.017 163.394 119.132 154.784C119.132 154.762 100.95 152.946 94.1878 150.714Z" fill="#44C6EA"/>
<path opacity="0.4" d="M114.689 155.563L117.852 155.873L115.533 157.668L114.689 155.563Z" fill="white"/>
<path d="M102.297 130.544C104.017 135.458 110.416 137.702 113.77 138.022C115.006 138.217 116.271 138.001 117.371 137.406C118.471 136.812 119.345 135.872 119.859 134.732C119.859 134.732 116.024 132.82 116.409 130.673C116.681 129.359 117.219 128.116 117.99 127.019C118.389 126.393 118.824 125.79 119.293 125.214L113.151 112.042C111.783 117.746 107.585 128.707 102.297 130.544Z" fill="#B97964"/>
<path opacity="0.2" d="M112.905 118.12C109.978 124.53 114.112 128.942 116.409 130.63C116.681 129.317 117.219 128.073 117.99 126.976L112.905 118.12Z" fill="black"/>
<path d="M133.5 101.017C133.5 101.017 135.466 111.871 129.804 116.219C124.142 120.567 123.565 100.291 123.565 100.291L133.5 101.017Z" fill="#B97964"/>
<path opacity="0.4" d="M133.5 101.017C133.5 101.017 135.466 111.871 129.804 116.219C124.142 120.567 123.565 100.291 123.565 100.291L133.5 101.017Z" fill="black"/>
<path d="M113.257 125.352C114.52 127.112 116.325 128.409 118.396 129.044C120.466 129.679 122.688 129.617 124.72 128.867C127.374 127.935 129.572 126.025 130.863 123.526C131.044 123.195 131.205 122.831 131.365 122.457C134.014 115.717 134.57 99.265 127.434 99.8739C121.537 100.376 115.768 98.5599 112.755 103.656C111.895 105.105 111.39 106.738 111.281 108.42C110.64 116.283 109.892 120.844 113.257 125.352Z" fill="#B97964"/>
<path d="M122.744 112.309C122.616 112.928 122.915 113.494 123.331 113.559C123.748 113.623 124.154 113.142 124.25 112.49C124.346 111.839 124.069 111.304 123.663 111.251C123.257 111.198 122.84 111.668 122.744 112.309Z" fill="#263238"/>
<path d="M129.891 113.324C129.762 113.943 130.072 114.509 130.478 114.573C130.884 114.638 131.301 114.157 131.386 113.505C131.472 112.853 131.215 112.319 130.799 112.255C130.382 112.191 129.976 112.725 129.891 113.324Z" fill="#263238"/>
<path d="M127.573 113.313C128.055 115.351 128.813 117.313 129.827 119.146C129.349 119.394 128.822 119.535 128.283 119.559C127.744 119.583 127.207 119.49 126.708 119.284L127.573 113.313Z" fill="#A24E3F"/>
<path d="M120.864 109.681C120.929 109.7 120.998 109.702 121.064 109.685C121.13 109.668 121.19 109.633 121.238 109.585C121.565 109.248 121.966 108.991 122.409 108.835C122.852 108.68 123.325 108.629 123.791 108.687C123.889 108.706 123.99 108.687 124.074 108.633C124.157 108.58 124.217 108.496 124.24 108.399C124.251 108.351 124.252 108.302 124.243 108.253C124.234 108.205 124.216 108.159 124.189 108.118C124.162 108.077 124.127 108.042 124.086 108.015C124.045 107.988 124 107.97 123.951 107.961C123.371 107.876 122.778 107.928 122.222 108.114C121.665 108.299 121.16 108.613 120.747 109.029C120.677 109.101 120.639 109.197 120.639 109.296C120.639 109.396 120.677 109.492 120.747 109.563C120.78 109.607 120.82 109.647 120.864 109.681Z" fill="#263238"/>
<path d="M133.309 111.294C133.378 111.32 133.454 111.32 133.523 111.294C133.57 111.282 133.615 111.26 133.653 111.23C133.692 111.2 133.724 111.162 133.747 111.118C133.77 111.075 133.784 111.028 133.788 110.979C133.791 110.93 133.785 110.881 133.768 110.834C133.599 110.265 133.295 109.744 132.882 109.317C132.47 108.889 131.96 108.567 131.397 108.377C131.35 108.363 131.3 108.358 131.251 108.363C131.203 108.368 131.155 108.383 131.112 108.407C131.069 108.431 131.032 108.464 131.002 108.503C130.972 108.541 130.95 108.586 130.937 108.634C130.911 108.729 130.923 108.83 130.971 108.916C131.019 109.002 131.099 109.066 131.194 109.093C131.636 109.256 132.034 109.519 132.357 109.862C132.679 110.205 132.918 110.618 133.053 111.069C133.074 111.125 133.108 111.174 133.153 111.214C133.198 111.253 133.251 111.28 133.309 111.294Z" fill="#263238"/>
<path d="M121.75 119.562C121.75 119.562 123.064 122.383 125.745 122.276" stroke="#263238" stroke-width="0.5" stroke-linecap="round" stroke-linejoin="round"/>
<path d="M118.342 99.5961L118.448 103.079C117.839 103.3 117.337 103.743 117.041 104.32C116.746 104.897 116.68 105.564 116.857 106.187C117.69 109.179 115.628 113.516 113.246 115.097C113.246 115.097 113.246 113.836 112.178 114.029C111.109 114.221 110.778 120.78 112.541 124.081C112.541 124.081 108.77 120.609 107.648 113.591C106.58 107.106 106.783 102.993 107.648 99.8845L118.342 99.5961Z" fill="#B97964"/>
<path opacity="0.4" d="M118.342 99.5961L118.448 103.079C117.839 103.3 117.337 103.743 117.041 104.32C116.746 104.897 116.68 105.564 116.857 106.187C117.69 109.179 115.628 113.516 113.246 115.097C113.246 115.097 113.246 113.836 112.178 114.029C111.109 114.221 110.778 120.78 112.541 124.081C112.541 124.081 108.77 120.609 107.648 113.591C106.58 107.106 106.783 102.993 107.648 99.8845L118.342 99.5961Z" fill="black"/>
<path d="M107.051 103.773C110.863 104.146 114.711 103.912 118.449 103.079C129.207 100.942 133.79 104.895 133.79 104.895C134.534 104.225 135.121 103.399 135.507 102.475C135.893 101.551 136.069 100.553 136.023 99.5534C135.713 96.4554 131.408 95.9319 131.408 95.9319C131.408 95.9319 130.115 92.4386 127.263 91.381C124.411 90.3234 121.548 92.9728 121.548 92.9728C121.548 92.9728 117.99 89.5329 113.845 90.5157C112.45 90.802 111.195 91.5588 110.291 92.6594C109.387 93.7601 108.888 95.1378 108.878 96.5622C108.878 96.5622 104.017 97.0536 104.124 99.5534C104.231 102.053 107.051 103.773 107.051 103.773Z" fill="#263238"/>
<path d="M123.577 116.86C125.507 116.86 127.071 115.056 127.071 112.832C127.071 110.608 125.507 108.805 123.577 108.805C121.648 108.805 120.084 110.608 120.084 112.832C120.084 115.056 121.648 116.86 123.577 116.86Z" stroke="#263238" stroke-width="0.5" stroke-linecap="round" stroke-linejoin="round"/>
<path d="M135.852 113.43C135.755 114.099 135.469 114.726 135.027 115.237C134.584 115.747 134.004 116.12 133.356 116.311C132.708 116.501 132.019 116.501 131.37 116.311C130.722 116.121 130.142 115.749 129.699 115.238C129.256 114.728 128.97 114.101 128.873 113.432C128.777 112.764 128.874 112.081 129.154 111.466C129.435 110.852 129.885 110.33 130.453 109.964C131.022 109.599 131.683 109.404 132.358 109.403C133.353 109.48 134.278 109.945 134.932 110.699C135.586 111.453 135.916 112.434 135.852 113.43Z" stroke="#263238" stroke-width="0.5" stroke-linecap="round" stroke-linejoin="round"/>
<path d="M127.06 113.313C127.06 113.313 128.192 112.608 128.865 113.43" stroke="#263238" stroke-width="0.5" stroke-linecap="round" stroke-linejoin="round"/>
<path d="M120.084 112.832L113.963 112.009C113.16 111.906 112.35 112.125 111.708 112.618L111.441 112.832" stroke="#263238" stroke-width="0.5" stroke-linecap="round" stroke-linejoin="round"/>
<path d="M106.986 114.306C107.6 116.185 108.932 117.745 110.693 118.644C113.032 119.808 114.699 117.842 114.464 115.375C114.25 113.174 112.787 109.862 110.191 109.734C109.637 109.715 109.087 109.835 108.591 110.083C108.094 110.331 107.668 110.698 107.35 111.152C107.032 111.606 106.832 112.132 106.768 112.683C106.705 113.234 106.779 113.792 106.986 114.306Z" fill="#B97964"/>
<path opacity="0.2" d="M67.9521 171.769C78.0368 167.582 86.0062 150.286 86.0062 150.286L80.2801 146.825L72.503 153.074L71.798 155.67C70.7297 159.634 69.7255 163.853 68.764 168.127C68.4863 169.344 68.2192 170.562 67.9521 171.769Z" fill="black"/>
<path d="M123.491 173.607L140.883 167.218L141.385 168.693L123.983 174.889L123.491 173.607Z" fill="#44C6EA"/>
<path d="M78.4304 217.568L28.0176 209.575L23.0872 240.669L73.5 248.662L78.4304 217.568Z" fill="#44C6EA"/>
<path d="M45.8484 221.412L35.6035 226.722L43.7011 234.937" stroke="white" stroke-width="2" stroke-linecap="round" stroke-linejoin="round"/>
<path d="M55.6338 236.828L65.8679 231.519L57.781 223.303" stroke="white" stroke-width="2" stroke-linecap="round" stroke-linejoin="round"/>
<path d="M47.2695 235.503L54.2134 222.737" stroke="white" stroke-width="2" stroke-linecap="round" stroke-linejoin="round"/>
<path d="M74.2445 137.146C74.2445 137.146 55.2397 156.215 52.6545 159.922C50.0692 163.629 45.1124 204.726 45.1124 204.726C45.1124 204.726 44.0441 205.089 43.98 205.976C43.9159 206.862 43.8091 218.4 43.98 218.934C44.1509 219.468 52.8895 224.863 54.1821 223.581C55.4747 222.299 57.2695 209.234 57.2695 209.234L52.6545 204.726C52.6545 204.726 57.9959 174.461 61.3823 169.558C64.7688 164.655 78.571 154.164 78.571 154.164L74.2445 137.146Z" fill="#B97964"/>
<path d="M88.8472 129.465C91.614 135.33 89.5095 147.68 84.4031 152.038C79.0002 156.519 73.2885 160.613 67.3106 164.291L57.9951 152.081C57.9951 152.081 67.9088 142.402 73.9126 136.826C77.996 132.867 83.2204 130.292 88.8472 129.465Z" fill="#44C6EA"/>
<path opacity="0.4" d="M88.8472 129.465C91.614 135.33 89.5095 147.68 84.4031 152.038C79.0002 156.519 73.2885 160.613 67.3106 164.291L57.9951 152.081C57.9951 152.081 67.9088 142.402 73.9126 136.826C77.996 132.867 83.2204 130.292 88.8472 129.465Z" fill="white"/>
<path d="M57.9946 151.301L56.8408 152.871L66.5729 165.595L67.951 164.612L57.9946 151.301Z" fill="#44C6EA"/>
</svg>
