<svg width="25" height="25" viewBox="0 0 25 25" fill="none" xmlns="http://www.w3.org/2000/svg">
<g clip-path="url(#clip0_140_1028)">
<path d="M19.1406 0H5.85938C2.62333 0 0 2.62333 0 5.85938V19.1406C0 22.3767 2.62333 25 5.85938 25H19.1406C22.3767 25 25 22.3767 25 19.1406V5.85938C25 2.62333 22.3767 0 19.1406 0Z" fill="white"/>
<path d="M19.1406 0H5.85938C2.62333 0 0 2.62333 0 5.85938V19.1406C0 22.3767 2.62333 25 5.85938 25H19.1406C22.3767 25 25 22.3767 25 19.1406V5.85938C25 2.62333 22.3767 0 19.1406 0Z" fill="#1D9BF0"/>
<path d="M19.4895 8.92685C19.5002 9.08183 19.5002 9.23681 19.5002 9.39326C19.5002 14.1586 15.8725 19.6545 9.23897 19.6545V19.6516C7.27931 19.6544 5.36026 19.0932 3.71094 18.0349C3.9959 18.0691 4.28223 18.0862 4.56934 18.0869C6.19352 18.0882 7.77098 17.5434 9.04824 16.5401C8.2957 16.5259 7.56641 16.2769 6.96234 15.8278C6.35827 15.3788 5.90962 14.7522 5.6791 14.0357C6.21941 14.1399 6.77642 14.1187 7.30723 13.9736C5.6248 13.6337 4.41436 12.1555 4.41436 10.4387V10.393C4.91591 10.6723 5.47723 10.8271 6.05107 10.8443C4.4665 9.78525 3.97803 7.67714 4.93486 6.0289C5.84026 7.14306 6.96991 8.0543 8.25044 8.70342C9.53096 9.35254 10.9337 9.72502 12.3676 9.79668C12.2246 9.18128 12.2457 8.53914 12.4288 7.93447C12.6119 7.3298 12.9505 6.7838 13.4108 6.35107C14.8634 4.98564 17.1479 5.05566 18.5133 6.50742C19.3209 6.34797 20.0954 6.05189 20.8034 5.63193C20.5342 6.46695 19.9708 7.17575 19.2181 7.62646C19.933 7.54223 20.6311 7.35086 21.2891 7.05878C20.8051 7.78359 20.1957 8.41612 19.4895 8.92685Z" fill="white"/>
</g>
<defs>
<clipPath id="clip0_140_1028">
<rect width="25" height="25" fill="white"/>
</clipPath>
</defs>
</svg>
